<svg width="16" height="16" viewBox="0 0 16 16" fill="none" xmlns="http://www.w3.org/2000/svg">
<path fill-rule="evenodd" clip-rule="evenodd" d="M7.68569 6.77126V12.7427H11.8114V6.77126H7.68569ZM7.14283 5.68555C6.84302 5.68555 6.59998 5.92859 6.59998 6.2284V13.2855C6.59998 13.5854 6.84302 13.8284 7.14283 13.8284H12.3543C12.6541 13.8284 12.8971 13.5854 12.8971 13.2855V6.2284C12.8971 5.92859 12.6541 5.68555 12.3543 5.68555H7.14283Z" fill="#107979"/>
<path d="M4.75429 4.05691V10.0283H5.51431V11.114H4.21144C3.91162 11.114 3.66858 10.871 3.66858 10.5712V3.51405C3.66858 3.21424 3.91162 2.97119 4.21144 2.97119H9.42287C9.72268 2.97119 9.96572 3.21424 9.96572 3.51405V4.8595H8.88001V4.05691H4.75429Z" fill="#107979"/>
</svg>
