<svg width="50" height="50" viewBox="0 0 50 50" fill="none" xmlns="http://www.w3.org/2000/svg">
<path d="M40.244 15.7206C40.4151 18.2284 40.6289 20.592 40.8749 22.8152C42.6524 38.8746 46.1159 45.4723 47.3967 47.432C47.6135 47.7638 47.4664 48.2475 47.09 48.3717L45.7863 48.8019C45.2234 48.9876 44.6135 48.9902 44.0961 48.7009C42.4044 47.755 38.7344 44.8545 39.2221 37.6534C39.8531 28.337 46.182 52.4326 35.8076 48.5812C32.9246 47.511 31.101 47.1086 29.9708 47.0856C28.7204 47.0601 26.3553 48.8078 25.1564 48.4517V48.4517C24.5014 48.2572 24.1016 47.5997 24.244 46.9314C25.749 39.8694 29.5967 24.4909 29.5967 15.1801C29.5967 12.3343 31.576 12.4774 35.9441 12.4774C38.3329 12.4774 37.3672 14.6364 35.934 14.6364C33.6134 14.6364 31.5077 14.0314 30.7569 11.5314C30.2477 9.83573 28.424 5.81844 27.5203 3.19386C27.2933 2.53438 27.7497 1.86537 28.4426 1.78482V1.78482C29.0233 1.7173 29.5621 2.09409 29.7093 2.65992C30.2306 4.66399 31.0678 7.47319 31.576 7.74761C32.1766 8.07193 34.1468 8.06292 35.0568 8.01788" stroke="#8A96A1" stroke-width="0.8"/>
<path d="M34.9604 8.03501C35.8598 8.08018 37.8068 8.08921 38.4003 7.76401C38.9028 7.48871 39.7308 4.66924 40.2458 2.65956C40.3906 2.09449 40.9282 1.71776 41.5075 1.78572V1.78572C42.1944 1.8663 42.6384 2.52682 42.3758 3.16663C41.6501 4.93476 40.3502 7.34541 39.8443 9.25452" stroke="#8A96A1" stroke-width="0.8"/>
<path d="M10.9999 12.4999C9.55212 9.81104 9.21988 1.70035 9.11646 1.59693C9.01305 1.49352 6.25498 3.94134 6.25498 4.25159C6.25498 4.56183 6.77206 4.87208 6.77206 5.07891C6.77206 5.28574 5.63449 5.38916 5.63449 5.38916C5.22082 6.94039 10.3575 16.5239 10.3575 16.5239" stroke="#8A96A1" stroke-width="0.8"/>
<path d="M10.9872 12.2005C12.8466 9.778 13.8144 1.86794 13.9331 1.7824C14.0517 1.69687 16.5886 4.40999 16.5389 4.71624C16.4893 5.02249 15.9292 5.24601 15.8961 5.45018C15.863 5.65434 16.9694 5.93844 16.9694 5.93844C17.1295 7.53588 11.3616 16.5237 11.3616 16.5237C11.2926 16.6616 10.9999 16.9997 10.3572 16.5237M12.6324 21.3492C13.2115 23.9139 13.4942 25.9687 13.5631 26.1755C15.4936 26.4858 19.3751 26.8167 19.4578 25.6585C19.5613 24.2106 16.769 15.3511 16.8725 12.8691C16.9552 10.8835 18.079 8.62935 18.6305 7.25047C18.6305 7.25047 20.1818 3.04458 19.4578 2.5275C18.7339 2.01042 16.4588 1.7824 16.4588 1.7824" stroke="#8A96A1" stroke-width="0.8"/>
<path d="M10.3833 21.1426C10.1891 22.0025 10.0283 22.8051 9.89764 23.4999C9.63865 24.8775 9.49839 25.8315 9.45256 25.9689C7.52213 26.2792 3.64058 26.6101 3.55784 25.4519C3.45443 24.004 6.24664 15.1445 6.14323 12.6625C6.06049 10.6769 4.35155 8.42275 3.8 7.04387C3.8 7.04387 2.83391 2.83798 3.55785 2.3209C4.28178 1.80382 6.55688 1.45221 6.55688 1.45221" stroke="#8A96A1" stroke-width="0.8"/>
<path d="M5.99993 28L5.99993 46.5C5.99993 47.0523 6.44765 47.5 6.99993 47.5H9.13717C9.63285 47.5 10.0543 47.1314 10.1289 46.6413C12.0839 33.8085 13.9462 29.5 11.4999 29.5C8.9999 29.5 13.5 38.5 13.5 44.5" stroke="#8A96A1" stroke-width="0.8"/>
<path d="M14.2 47.5H16.2499C16.7823 47.5 17.2213 47.0829 17.2486 46.5512L18.2 28" stroke="#8A96A1" stroke-width="0.8"/>
</svg>
