<svg width="544" height="2018" viewBox="0 0 544 2018" fill="none" xmlns="http://www.w3.org/2000/svg">
<g clip-path="url(#clip0_151_1592)">
<path d="M309.397 497.98C308.123 497.577 306.915 497.196 305.781 496.845C293.987 491.924 287.118 487.212 282.114 483.779C280.947 482.979 279.882 482.248 278.879 481.6C289.028 478.743 306.914 476.107 323.687 477.264C343.009 478.597 357.305 490.296 371.424 502.169C362.764 507.126 351.25 507.424 339.476 505.65C328.394 503.98 317.555 500.556 309.397 497.98Z" stroke="#C9CAC2" stroke-width="4.58"/>
<path d="M316.015 423.753C316.929 423.828 317.811 423.913 318.658 424.016C310.871 412.858 293.958 394.597 274.879 381.545C253.372 366.832 228.463 367.467 203.914 368.225C208.803 381.465 221.459 391.775 235.915 399.852C248.425 406.841 261.899 411.958 272.076 415.822C273.727 416.449 275.292 417.043 276.751 417.607C289.492 421.185 299.112 422.427 306.455 423.053C308.302 423.21 310.008 423.329 311.595 423.436C311.785 423.449 311.973 423.462 312.159 423.474C313.529 423.567 314.818 423.654 316.015 423.753ZM203.42 368.241C203.42 368.241 203.42 368.241 203.42 368.241L203.42 368.241Z" stroke="#C9CAC2" stroke-width="4.58"/>
<path d="M262.695 273.708C274.748 289.255 289.216 309.094 299.469 332.29C307.862 342.495 315.405 346.458 322.391 349.957C322.645 350.085 322.899 350.212 323.153 350.338C328.824 353.173 334.321 355.921 339.314 361.66C340.093 347.767 339.19 323.747 326.608 305.29C314.123 286.976 298.895 277.69 283.412 269.832C280.782 268.498 278.133 267.2 275.483 265.902C263.79 260.175 252.071 254.435 241.902 245.465C242.05 245.753 242.21 246.051 242.382 246.36C243.546 248.448 245.166 250.871 247.175 253.637C249.875 257.354 253.186 261.569 256.905 266.304C258.743 268.644 260.681 271.111 262.695 273.708Z" stroke="#C9CAC2" stroke-width="4.58"/>
<path d="M250.616 331.031C252.48 333.713 254.425 336.221 256.526 338.45C255.504 338.118 254.41 337.752 253.236 337.358C252.891 337.243 252.539 337.125 252.18 337.005C246.69 335.17 239.766 332.918 231.449 331.255C211.899 327.345 191.769 316.092 178.94 305.72C158.806 289.441 153.391 284.819 145.434 272.274C139.292 262.591 134.197 253.609 129.111 239.752C130.441 239.941 132.261 240.62 134.808 241.903C136.653 242.832 138.628 243.937 140.859 245.185C142.685 246.207 144.682 247.324 146.921 248.52L147.16 248.648L147.422 248.716C166.621 253.725 179.016 260.812 199.201 272.354C202.783 274.402 206.61 276.59 210.764 278.933C224.294 288.699 232.722 301.646 240.019 313.851C240.764 315.097 241.499 316.339 242.228 317.571C245.05 322.338 247.78 326.949 250.616 331.031Z" stroke="#C9CAC2" stroke-width="4.58"/>
<path d="M464.501 2009.54L412.786 1847C336.378 1552.83 601.898 805.573 466.272 585.898C462.639 579.09 457.928 569.763 452.859 559M418 460.5C415.338 443.107 414.125 426.595 411.006 407.5M418 460.5C418.49 463.7 419.131 467.044 419.902 470.5M418 460.5C407.855 450.129 392.647 433.822 378.125 416.766M355 257C362.637 271.44 369.228 284.719 374.932 297M319 175C321.298 180.657 326.11 192.128 332.867 207.623M411.006 407.5C413.004 398.833 418.8 379.4 426 371C435 360.5 446.5 302 418 271.5M411.006 407.5C406.466 379.705 397.89 346.435 374.932 297M374.932 297C375.301 288.304 375.891 276.541 376.661 264M384 194C382.156 200.372 380.473 214.581 379.053 231M364 201.5C364.674 207.788 367.716 217.101 371 225.653M236 145C182.8 107 170.5 81.5 171 73.5M236 145C229.167 140.667 214.2 124.8 209 96M236 145C238.344 146.674 240.678 148.376 243 150.103M243 150.103C227.667 144.735 191.8 129.2 171 110M243 150.103C266.456 167.539 288.717 187.45 307.5 205.827M452.859 559C452.165 557.526 451.465 556.025 450.759 554.5C450.301 553.51 449.841 552.51 449.379 551.5M452.859 559C455.334 551.458 459.21 537.884 461.573 525C463.075 516.814 463.966 508.905 463.5 503C462 484 457.5 466 458 449.5M449.379 551.5C431.419 538.833 390.7 511.4 371.5 503M449.379 551.5C437.905 526.409 425.485 495.507 419.902 470.5M419.902 470.5C414.49 464.755 392.238 452.978 368 444.122M338.5 360.5C343.771 374.118 360.44 395.997 378.125 416.766M378.125 416.766C358.139 402.697 325.592 381.192 297.5 363.728M247.5 335.5C255.649 338.512 275.167 349.843 297.5 363.728M297.5 363.728C294 351.152 282.2 320.2 263 297M368 444.122C365.516 443.214 363.01 442.337 360.5 441.5C346.325 436.775 332.381 430.672 321.487 425C319.557 423.995 317.723 423.004 316 422.036M368 444.122C362.509 447.378 346.592 457.712 323 449.5" stroke="url(#paint0_linear_151_1592)" stroke-width="4.58452"/>
<path d="M450 500C452.167 505.5 457.5 518.2 461.5 525" stroke="#C9CAC2" stroke-width="3"/>
<mask id="path-7-inside-1_151_1592" fill="white">
<path d="M421.26 275.787C383.597 264.999 352.769 264.867 317.5 244.5C271.246 209.695 248.364 197.8 244.951 186.588C244.525 185.189 246.085 184.258 247.408 184.88C327.634 222.57 312.742 184 375 226C399.144 242.288 416.876 262.931 421.733 275.292C421.849 275.588 421.566 275.874 421.26 275.787Z"/>
</mask>
<path d="M317.5 244.5L315.21 248.466L314.969 248.327L314.746 248.16L317.5 244.5ZM421.26 275.787L419.999 280.19L419.999 280.19L421.26 275.787ZM421.733 275.292L425.995 273.617L425.995 273.617L421.733 275.292ZM375 226L372.439 229.797L372.439 229.797L375 226ZM247.408 184.88L245.461 189.025L245.461 189.025L247.408 184.88ZM244.951 186.588L240.569 187.922L240.569 187.922L244.951 186.588ZM319.79 240.534C336.89 250.408 352.938 255.404 369.523 259.275C385.897 263.098 403.596 265.963 422.521 271.384L419.999 280.19C401.261 274.823 384.714 272.228 367.441 268.196C350.379 264.213 333.379 258.958 315.21 248.466L319.79 240.534ZM417.47 276.967C415.341 271.549 410.125 263.786 402.231 255.223C394.41 246.738 384.211 237.739 372.439 229.797L377.561 222.203C389.933 230.549 400.672 240.015 408.967 249.014C417.189 257.934 423.267 266.673 425.995 273.617L417.47 276.967ZM372.439 229.797C357.04 219.409 346.687 214.194 338.628 211.5C330.682 208.844 324.755 208.559 317.838 208.403C310.807 208.243 302.803 208.219 291.47 205.776C280.18 203.343 265.732 198.549 245.461 189.025L249.356 180.735C269.197 190.056 282.973 194.574 293.4 196.822C303.783 199.06 310.989 199.085 318.046 199.245C325.216 199.407 332.254 199.711 341.533 202.813C350.699 205.877 361.831 211.591 377.561 222.203L372.439 229.797ZM249.332 185.254C249.849 186.952 251.261 189.141 254.405 192.179C257.512 195.182 261.921 198.653 267.864 203C279.556 211.553 297.162 223.464 320.254 240.84L314.746 248.16C291.585 230.731 274.622 219.292 262.456 210.393C256.471 206.015 251.628 202.234 248.039 198.766C244.487 195.333 241.759 191.831 240.569 187.922L249.332 185.254ZM245.461 189.025C246.212 189.378 247.184 189.366 248.038 188.804C248.488 188.509 248.959 188.019 249.236 187.309C249.526 186.566 249.507 185.827 249.332 185.254L240.569 187.922C239.71 185.098 240.971 182.487 243.009 181.148C244.868 179.927 247.281 179.76 249.356 180.735L245.461 189.025ZM422.521 271.384C419.601 270.547 416.041 273.329 417.47 276.967L425.995 273.617C427.658 277.848 423.531 281.201 419.999 280.19L422.521 271.384Z" fill="#C9CAC2" mask="url(#path-7-inside-1_151_1592)"/>
<path d="M255.583 117.281C258.254 121.852 261.005 126.679 263.506 131.887C275.012 149.98 282.467 156.287 290.303 160.592C292.693 161.905 295.238 163.078 298.023 164.361C303.711 166.983 310.395 170.063 318.784 175.733C318.634 170.277 317.139 162.651 313.983 153.609C310.128 142.564 303.863 129.608 294.837 116.269C290.131 109.312 287.036 101.416 285.285 93.2953C277.767 58.4255 257.098 44.6083 240.414 33.4549C237.608 31.5793 234.915 29.7791 232.417 27.9668C232.889 29.346 233.383 30.7405 233.886 32.1603C238.048 43.9117 242.823 57.3921 241.284 78.1692C240.606 87.3133 243.533 95.4403 248.025 104.017C249.882 107.563 251.975 111.13 254.17 114.869C254.637 115.665 255.108 116.468 255.583 117.281Z" stroke="#C9CAC2" stroke-width="4.58"/>
<path d="M472 498C470.333 502 466.3 510.4 463.5 512M486 501C479.5 503.667 465.9 510 463.5 514" stroke="#C9CAC2" stroke-width="2"/>
<path d="M463 487.5L467.5 482C468.5 479.667 470.4 473.6 470 468M461 486.5C458 483.167 451.7 475.4 450.5 471" stroke="#C9CAC2" stroke-width="2"/>
<path d="M390.932 2011.5C457.545 1678.35 568.891 1319.15 403.235 981.313C382.527 946.389 349.679 839.961 170 779.521" stroke="url(#paint1_linear_151_1592)" stroke-width="4.58452"/>
<path d="M354.204 797.622C355.272 798.067 356.803 798.268 358.158 798.106C359.591 797.934 360.391 797.424 360.614 796.888C360.742 796.581 360.803 796.053 360.716 795.326C360.632 794.62 360.421 793.822 360.106 793.041C359.791 792.26 359.385 791.528 358.933 790.945C358.473 790.352 358.014 789.975 357.611 789.807C355.612 788.973 353.294 790.041 352.625 791.644C352.276 792.481 352.176 793.824 352.469 795.088C352.764 796.366 353.387 797.281 354.204 797.622Z" stroke="#C9CAC2" stroke-width="2"/>
<path d="M344.849 833.76C346.344 834.383 348.4 834.751 350.175 834.691C351.061 834.661 351.819 834.526 352.379 834.303C352.944 834.078 353.194 833.812 353.289 833.586C353.409 833.298 353.448 832.745 353.27 831.924C353.098 831.136 352.753 830.227 352.273 829.324C351.289 827.473 349.875 825.893 348.554 825.342C347.128 824.747 345.638 824.706 344.423 825.046C343.19 825.391 342.354 826.087 342.033 826.858C341.68 827.705 341.658 829.153 342.152 830.594C342.639 832.014 343.558 833.221 344.849 833.76Z" stroke="#C9CAC2" stroke-width="2"/>
<path d="M264.489 941.188C267.562 941.167 272.043 939.521 272.029 937.481C272.015 935.44 267.653 931.883 264.581 931.904C261.508 931.925 259.014 933.972 259.028 936.013C259.041 938.053 261.417 941.209 264.489 941.188Z" fill="#C9CAC2"/>
<path d="M65.6838 792.067C67.1744 789.47 71.7562 787.998 73.8334 789.191C75.9107 790.383 81.7711 793.307 80.2805 795.903C76.9343 800.85 71.9525 800.744 69.8752 799.551C67.7979 798.359 64.1932 794.663 65.6838 792.067Z" fill="#C9CAC2"/>
<path d="M187.032 888.392C189.375 887.36 194.368 884.936 193.543 883.061C192.718 881.186 185.874 876.618 183.531 877.65C179.02 880.045 178.658 884.291 179.483 886.166C180.308 888.04 184.688 889.423 187.032 888.392Z" fill="#C9CAC2"/>
<path d="M202.432 862.981C204.373 864.65 208.443 868.424 207.108 869.977C205.773 871.53 197.895 873.907 195.953 872.237C192.336 868.632 193.226 864.465 194.562 862.912C195.897 861.359 200.49 861.312 202.432 862.981Z" fill="#C9CAC2"/>
<path d="M172.446 823.689C173.613 824.693 176.06 826.961 175.257 827.895C174.454 828.828 169.718 830.257 168.551 829.254C166.377 827.086 166.912 824.581 167.715 823.647C168.517 822.714 171.279 822.686 172.446 823.689Z" fill="#C9CAC2"/>
<path d="M185.394 817.625C186.562 818.628 189.009 820.897 188.206 821.83C187.403 822.764 182.667 824.193 181.5 823.189C179.325 821.022 179.861 818.517 180.663 817.583C181.466 816.649 184.227 816.621 185.394 817.625Z" fill="#C9CAC2"/>
<path d="M255.897 904.998C254.889 905.869 253.34 906.578 251.892 906.89C251.172 907.045 250.53 907.09 250.031 907.034C249.513 906.975 249.286 906.826 249.205 906.733C249.023 906.521 248.783 906.07 248.577 905.396C248.378 904.745 248.237 903.966 248.198 903.17C248.116 901.518 248.48 900.113 249.265 899.417C253.846 895.914 257.336 897.188 258.12 898.096C258.215 898.206 258.351 898.507 258.37 899.105C258.389 899.673 258.295 900.377 258.09 901.13C257.673 902.66 256.856 904.17 255.897 904.998Z" stroke="#C9CAC2" stroke-width="2"/>
<path d="M200.364 919.08C199.034 919.169 197.371 918.804 196.026 918.181C195.358 917.872 194.818 917.521 194.454 917.176C194.075 916.818 193.983 916.562 193.975 916.439C193.956 916.16 194.036 915.655 194.278 914.993C194.511 914.353 194.866 913.647 195.314 912.987C196.243 911.618 197.378 910.715 198.425 910.631C204.192 910.59 206.212 913.707 206.292 914.904C206.302 915.049 206.23 915.372 205.885 915.861C205.558 916.326 205.06 916.832 204.443 917.31C203.189 918.281 201.627 918.995 200.364 919.08Z" stroke="#C9CAC2" stroke-width="2"/>
<path d="M285.345 912.653C287.197 913.101 288.987 913.262 290.183 913.199C292.393 912.844 293.752 911.638 294.86 910.655C294.983 910.546 295.103 910.439 295.222 910.336C293.7 909.445 291.24 908.39 288.712 907.914C286.07 907.416 283.412 908.324 280.621 909.578C280.346 909.702 280.2 909.919 280.162 910.091C280.144 910.174 280.151 910.241 280.168 910.292C280.185 910.338 280.22 910.402 280.311 910.471C281.623 911.47 283.464 912.198 285.345 912.653Z" stroke="#C9CAC2" stroke-width="2"/>
<path d="M126.651 818.369C128.194 817.252 129.479 815.995 130.208 815.044C131.373 813.133 131.339 811.317 131.31 809.836C131.307 809.671 131.304 809.51 131.303 809.353C129.637 809.932 127.237 811.117 125.233 812.731C123.14 814.417 122.104 817.027 121.245 819.964C121.16 820.254 121.231 820.506 121.338 820.647C121.389 820.715 121.444 820.753 121.494 820.772C121.54 820.79 121.611 820.804 121.723 820.78C123.335 820.432 125.083 819.504 126.651 818.369Z" stroke="#C9CAC2" stroke-width="2"/>
<path d="M152.931 836.278C154.042 837.488 155.234 838.461 156.115 838.995C157.896 839.828 159.489 839.622 160.801 839.452C160.888 839.441 160.975 839.43 161.06 839.419C160.373 838.015 159.123 836.086 157.557 834.525C155.933 832.908 153.636 832.235 151.04 831.762C150.745 831.708 150.509 831.806 150.39 831.921C150.333 831.975 150.306 832.028 150.295 832.073C150.285 832.113 150.28 832.18 150.318 832.285C150.817 833.639 151.799 835.046 152.931 836.278Z" stroke="#C9CAC2" stroke-width="2"/>
<path d="M65.2359 816.291C66.8851 817.244 68.557 817.904 69.7219 818.182C71.942 818.466 73.5865 817.694 74.927 817.064C75.0764 816.994 75.2221 816.925 75.3644 816.86C74.1566 815.575 72.0956 813.868 69.8051 812.696C67.4119 811.473 64.6056 811.592 61.5741 812.005C61.2745 812.046 61.0736 812.213 60.9883 812.368C60.9474 812.443 60.9352 812.509 60.9378 812.562C60.9402 812.611 60.9564 812.682 61.0237 812.774C61.9994 814.104 63.56 815.322 65.2359 816.291Z" stroke="#C9CAC2" stroke-width="2"/>
<path d="M252.118 863.822C252.536 863.917 252.911 864.001 253.23 864.078C254.902 864.311 257.942 864.478 261.001 864.614C261.996 864.658 262.992 864.698 263.937 864.737C264.708 864.768 265.444 864.798 266.117 864.827C265.036 864.187 263.735 863.467 262.39 862.745C260.629 861.799 258.843 860.877 257.456 860.16C256.934 859.89 256.468 859.65 256.081 859.448C255.542 859.167 254.673 858.947 253.512 858.812C252.372 858.679 251.037 858.636 249.621 858.655C246.791 858.694 243.722 858.983 241.418 859.258C241.111 859.295 240.952 859.457 240.909 859.542C240.899 859.562 240.897 859.573 240.896 859.578C240.9 859.589 240.917 859.621 240.972 859.67C242.299 860.853 244.647 861.81 247.127 862.556C248.974 863.112 250.772 863.518 252.118 863.822ZM240.896 859.581C240.896 859.581 240.896 859.58 240.896 859.579C240.896 859.58 240.896 859.581 240.896 859.581ZM240.895 859.574C240.895 859.574 240.895 859.575 240.896 859.577C240.896 859.575 240.895 859.574 240.895 859.574Z" stroke="#C9CAC2" stroke-width="2"/>
<path d="M170.815 711.287C171.206 711.466 171.555 711.626 171.851 711.767C173.439 712.341 176.378 713.133 179.343 713.898C180.308 714.146 181.274 714.392 182.19 714.625C182.938 714.815 183.653 714.997 184.305 715.164C183.379 714.314 182.255 713.341 181.089 712.356C179.561 711.067 178.005 709.795 176.796 708.808C176.34 708.436 175.934 708.104 175.597 707.826C175.128 707.44 174.324 707.046 173.216 706.673C172.128 706.307 170.83 705.989 169.441 705.716C166.664 705.169 163.602 704.816 161.29 704.61C160.982 704.582 160.793 704.708 160.734 704.783C160.72 704.799 160.715 704.81 160.714 704.815C160.716 704.826 160.725 704.861 160.769 704.92C161.822 706.352 163.923 707.774 166.194 709.016C167.886 709.942 169.562 710.711 170.815 711.287ZM160.713 704.818C160.713 704.818 160.713 704.817 160.714 704.816C160.713 704.817 160.713 704.818 160.713 704.818ZM160.714 704.811C160.713 704.811 160.713 704.812 160.714 704.814C160.714 704.812 160.714 704.811 160.714 704.811Z" stroke="#C9CAC2" stroke-width="2"/>
<path d="M223.131 740.324C223.178 741.648 223.214 742.904 223.21 744.012C224.73 741.851 226.622 738.683 227.592 736.581C228.223 735.213 228.5 732.917 228.13 730.249C227.764 727.606 226.776 724.71 225.009 722.17C224.903 722.018 224.763 721.941 224.676 721.923C224.654 721.919 224.641 721.919 224.634 721.919C224.632 721.921 224.628 721.925 224.623 721.931C223.977 722.655 223.496 724.071 223.214 726.116C222.938 728.109 222.873 730.503 222.901 732.995C222.923 734.9 222.997 736.833 223.068 738.665C223.09 739.228 223.111 739.783 223.131 740.324ZM224.638 721.917C224.638 721.917 224.637 721.917 224.637 721.917C224.637 721.917 224.638 721.917 224.638 721.917Z" stroke="#C9CAC2" stroke-width="2"/>
<path d="M144.64 759.729C145.457 760.684 146.228 761.597 146.887 762.427C146.729 759.874 146.255 756.381 145.728 754.224C145.382 752.813 144.212 750.91 142.325 749.111C140.457 747.33 137.967 745.73 135.101 744.866C134.925 744.813 134.77 744.84 134.693 744.879C134.678 744.887 134.669 744.893 134.664 744.897C134.663 744.9 134.663 744.904 134.663 744.908C134.621 745.849 135.118 747.211 136.139 748.929C137.135 750.603 138.529 752.453 140.052 754.322C141.218 755.753 142.44 757.173 143.6 758.519C143.953 758.93 144.301 759.333 144.64 759.729Z" stroke="#C9CAC2" stroke-width="2"/>
<path d="M359.5 796.442C370.587 810.738 387.019 832.321 392.983 862.442M392.983 862.442C390.988 857.109 382.6 842.542 365 826.942M392.983 862.442C395.563 875.476 396.183 890.109 393.561 906.442M393.561 906.442C391.858 917.049 388.788 928.373 384 940.442V945.442C377.161 944.976 362.466 944.335 355 945.224M393.561 906.442C394.707 902.442 392.3 888.742 373.5 865.942C354.7 843.142 354 835.942 353 831.442M269 935.442C276.5 942.942 280 941.442 294.5 946.942C299.364 948.787 306.647 949.394 314.5 949.33M355 945.224C354.46 945.289 353.958 945.361 353.5 945.442C347.851 946.439 330.058 949.202 314.5 949.33M355 945.224C348.471 943.744 336.219 940.123 328.713 935.442M294.5 909.942C300.434 913.167 311.681 919.907 318.686 925.942M328.713 935.442C326.447 934.029 324.613 932.519 323.5 930.942C322.415 929.405 320.732 927.704 318.686 925.942M328.713 935.442C321.142 936.275 305.1 936.942 301.5 932.942C297.9 928.942 290 925.275 286.5 923.942M314.5 949.33C308.667 953.867 291 959.742 267 946.942M318.686 925.942C320.124 924.275 319.7 918.442 306.5 908.442" stroke="#C9CAC2" stroke-width="2" stroke-linejoin="round"/>
<path d="M160.187 839.422C167.877 844.95 170.745 843.123 184.314 845.88C188.866 846.804 195.371 846.289 202.282 845.1C215.972 842.745 231.253 837.745 236.087 836.052C236.479 835.915 236.911 835.779 237.377 835.645M237.377 835.645C243.827 833.785 256.869 832.23 262.962 831.655C271.879 830.814 274.142 831.082 297 845.88M237.377 835.645C231.411 835.281 220.093 833.857 212.804 830.814M186.283 821.518C191.977 823.504 195.556 819.581 202.599 823.888M212.804 830.814C210.603 829.895 208.77 828.829 207.561 827.6C206.384 826.403 204.655 825.146 202.599 823.888M212.804 830.814C206.252 832.64 192.213 835.54 188.464 832.534C184.715 829.528 177.226 827.436 173.949 826.766M202.599 823.888C203.626 822.213 202.411 817.134 189.338 810.225" stroke="#C9CAC2" stroke-width="2" stroke-linejoin="round"/>
<path d="M341.043 883.061C335.814 877.831 319.373 868.805 294.043 872.4M290.043 873.061C291.4 872.805 292.733 872.586 294.043 872.4M290.043 873.061C285.543 877.728 275.543 887.661 271.543 890.061C267.543 892.461 260.876 896.394 258.043 898.061M290.043 873.061C283.323 874.327 277.139 876.251 271.543 878.546M207.043 914.561C211.443 915.761 229.543 906.728 238.043 902.061C242.456 896.387 254.157 885.677 271.543 878.546M294.043 872.4C293.376 871.287 290.743 868.761 285.543 867.561C279.043 866.061 270.043 867.561 265.043 864.061M271.543 878.546C266.533 881.123 259.713 884.076 252.043 886.601M192.543 884.061C206.233 895.872 229.095 893.478 248.043 887.853M252.043 886.601C250.733 887.032 249.398 887.451 248.043 887.853M252.043 886.601L248.043 887.853M248.043 887.853C243.71 888.412 232.443 885.334 222.043 876.546C211.643 867.758 205.043 867.894 203.043 869.061" stroke="#C9CAC2" stroke-width="2" stroke-linejoin="round"/>
<path d="M169.5 780.5C173.5 780.5 172.69 779.537 174 779.351C173.689 778.832 168.488 777.785 162.5 776.693M169.5 780.5C164.5 789 154 793.208 144 797C139.638 798.654 133.333 808.333 130.5 810M169.5 780.5C162.662 780.5 146.351 778.985 139 782M74 817C106.5 827 119.39 790.043 139 782M124.5 770C129.5 773.5 138.5 772 145 773.5C147.774 774.14 155.652 775.446 162.5 776.693M139 782C127.5 785 119.17 785.015 111.5 787.54M111.5 787.54C110.19 787.971 108.855 788.39 107.5 788.792M111.5 787.54L107.5 788.792M107.5 788.792C95.7041 792.293 85.6855 795.527 76.5 794.62M107.5 788.792C105.053 789.108 101.862 785.63 96.7561 782M162.5 776.693C158.833 775.796 150.5 769 146.5 761" stroke="#C9CAC2" stroke-width="2" stroke-linejoin="round"/>
<path d="M255.119 760.237C257.277 761.616 261.839 764.777 260.737 766.503C259.634 768.229 252.17 771.694 250.013 770.315C245.923 767.257 246.216 763.005 247.319 761.279C248.421 759.553 252.962 758.859 255.119 760.237Z" fill="#C9CAC2"/>
<path d="M275.584 809.757C274.687 808.771 273.938 807.242 273.589 805.802C273.416 805.086 273.355 804.445 273.398 803.945C273.443 803.426 273.586 803.195 273.677 803.112C273.884 802.924 274.329 802.672 274.997 802.45C275.644 802.234 276.418 802.073 277.213 802.013C278.863 801.889 280.276 802.216 280.992 802.983C284.612 807.473 283.428 810.994 282.541 811.802C282.433 811.899 282.136 812.044 281.538 812.078C280.971 812.111 280.265 812.036 279.507 811.85C277.966 811.472 276.436 810.694 275.584 809.757Z" stroke="#C9CAC2" stroke-width="2"/>
<path d="M275.003 757.631C273.78 757.102 272.468 756.016 271.557 754.847C271.105 754.267 270.785 753.708 270.619 753.235C270.446 752.743 270.481 752.473 270.53 752.36C270.641 752.104 270.943 751.691 271.46 751.213C271.961 750.751 272.6 750.285 273.3 749.903C274.752 749.11 276.175 748.827 277.144 749.231C282.291 751.832 282.662 755.528 282.185 756.63C282.128 756.763 281.916 757.017 281.385 757.294C280.882 757.558 280.207 757.78 279.44 757.923C277.881 758.213 276.166 758.134 275.003 757.631Z" stroke="#C9CAC2" stroke-width="2"/>
<path d="M118.003 771.631C116.78 771.102 115.468 770.016 114.557 768.847C114.105 768.267 113.785 767.708 113.619 767.235C113.446 766.743 113.481 766.473 113.53 766.36C113.641 766.104 113.943 765.691 114.46 765.213C114.961 764.751 115.6 764.285 116.3 763.903C117.752 763.11 119.175 762.827 120.144 763.231C125.291 765.832 125.662 769.528 125.185 770.63C125.128 770.763 124.916 771.017 124.385 771.294C123.882 771.558 123.207 771.78 122.44 771.923C120.881 772.213 119.166 772.134 118.003 771.631Z" stroke="#C9CAC2" stroke-width="2"/>
<path d="M89.0033 782.631C87.7804 782.102 86.4681 781.016 85.5573 779.847C85.105 779.267 84.7849 778.708 84.6186 778.235C84.4458 777.743 84.4814 777.473 84.5303 777.36C84.6413 777.104 84.943 776.691 85.4605 776.213C85.9607 775.751 86.6 775.285 87.2997 774.903C88.7517 774.11 90.1748 773.827 91.1435 774.231C96.2905 776.832 96.6617 780.528 96.1853 781.63C96.1277 781.763 95.9156 782.017 95.3853 782.294C94.8819 782.558 94.2074 782.78 93.4401 782.923C91.8808 783.213 90.1659 783.134 89.0033 782.631Z" stroke="#C9CAC2" stroke-width="2"/>
<path d="M157.119 713.237C159.277 714.616 163.839 717.777 162.737 719.503C161.634 721.229 154.17 724.694 152.013 723.315C147.923 720.257 148.216 716.005 149.319 714.279C150.421 712.553 154.962 711.859 157.119 713.237Z" fill="#C9CAC2"/>
<path d="M316.732 848C311.952 843.621 305.655 844.21 297 828C294.803 823.885 284.239 814.789 282.5 812M316.732 848C318.275 855.166 316.875 860.5 316.875 860.5M316.732 848C315.651 842.976 313.212 835.336 311.032 829.5M259 765.5C292.5 787.5 304.78 814.854 309.012 824.461C309.618 825.837 310.311 827.57 311.032 829.5M282.5 756C299.5 765.5 305.019 801.5 305.019 816M311.032 829.5C311.021 824.305 316.432 811.667 314.032 801.5C311.032 788.792 309.993 772.5 312.012 768" stroke="#C9CAC2" stroke-width="2" stroke-linejoin="round"/>
<path d="M177.697 763.632C176.528 762.993 175.321 761.791 174.521 760.543C174.124 759.924 173.857 759.338 173.735 758.851C173.608 758.346 173.668 758.081 173.727 757.972C173.861 757.727 174.199 757.344 174.759 756.916C175.299 756.501 175.979 756.096 176.71 755.78C178.229 755.124 179.672 754.973 180.6 755.464C185.486 758.527 185.516 762.242 184.941 763.295C184.871 763.422 184.636 763.655 184.083 763.883C183.557 764.099 182.865 764.258 182.088 764.33C180.509 764.475 178.808 764.239 177.697 763.632Z" stroke="#C9CAC2" stroke-width="2"/>
<path d="M183.474 809.674C182.448 809.113 181.383 808.055 180.677 806.953C180.326 806.406 180.094 805.893 179.988 805.473C179.878 805.034 179.937 804.829 179.972 804.766C180.081 804.566 180.37 804.235 180.864 803.856C181.339 803.492 181.938 803.134 182.584 802.856C183.929 802.274 185.176 802.155 185.96 802.568C190.291 805.285 190.273 808.543 189.796 809.415C189.751 809.498 189.568 809.694 189.083 809.893C188.626 810.081 188.019 810.221 187.333 810.285C185.936 810.413 184.441 810.203 183.474 809.674Z" stroke="#C9CAC2" stroke-width="2"/>
<path d="M194.003 699.631C192.78 699.102 191.468 698.016 190.557 696.847C190.105 696.267 189.785 695.708 189.619 695.235C189.446 694.743 189.481 694.473 189.53 694.36C189.641 694.104 189.943 693.691 190.46 693.213C190.961 692.751 191.6 692.285 192.3 691.903C193.752 691.11 195.175 690.827 196.144 691.231C201.291 693.832 201.662 697.528 201.185 698.63C201.128 698.763 200.916 699.017 200.385 699.294C199.882 699.558 199.207 699.78 198.44 699.923C196.881 700.213 195.166 700.134 194.003 699.631Z" stroke="#C9CAC2" stroke-width="2"/>
<path d="M315.479 756.981C315.29 757.367 315.121 757.712 314.973 758.005C314.152 760.11 312.971 764.273 312.003 767.687C311.824 768.317 311.652 768.922 311.491 769.484C311.471 769.554 311.465 769.61 311.465 769.651C311.473 769.644 311.482 769.636 311.491 769.628C313.921 767.307 317.235 763.678 318.82 761.848C319.218 761.388 319.632 760.594 320.032 759.495C320.424 758.417 320.775 757.127 321.083 755.746C321.698 752.983 322.126 749.93 322.39 747.624C322.426 747.318 322.304 747.125 322.231 747.064C322.215 747.05 322.204 747.045 322.2 747.043C322.188 747.045 322.153 747.054 322.093 747.096C320.635 748.114 319.162 750.178 317.863 752.418C316.896 754.087 316.085 755.742 315.479 756.981ZM322.197 747.043C322.197 747.043 322.197 747.043 322.199 747.043C322.198 747.043 322.197 747.043 322.197 747.043Z" stroke="#C9CAC2" stroke-width="2"/>
<path d="M232 795.5C196 777.5 198 765.5 184.5 761M232 795.5C238.81 806.501 255.5 816.5 255.5 816.5M232 795.5C227.197 787.742 220.86 783.442 217 779.371M161 718.5C194.5 740.5 205.268 753.893 209.5 763.5M209.5 763.5C210.106 764.876 213.291 773.07 214.012 775M209.5 763.5C209.5 761.352 209.675 758.623 209.919 755.5M200.5 698.5C214.982 706.593 211.322 737.544 209.919 755.5M214.012 775C212.5 749.5 219 760.5 223.5 742.5M214.012 775C214.581 776.524 215.636 777.933 217 779.371M209.919 755.5C208.113 747.167 203.5 729.4 199.5 725C195.5 720.6 186.5 715.167 182.5 714.5M217 779.371C212 769.414 192.5 748.101 178.5 742.5C161 735.5 148.5 743.5 138.5 732.5" stroke="#C9CAC2" stroke-width="2" stroke-linejoin="round"/>
<path d="M392.476 185.601C392.762 190.761 389.647 195.13 385.519 195.359C381.39 195.587 375.943 191.692 375.657 186.532C375.372 181.371 378.487 177.003 382.615 176.774C386.744 176.546 392.191 180.44 392.476 185.601Z" fill="#C9CAC2"/>
<path d="M367.582 194.447C367.807 198.52 366.474 203.305 363.216 203.486C359.958 203.666 354.535 199.255 354.309 195.182C354.084 191.11 356.542 187.662 359.8 187.482C363.058 187.302 367.356 190.375 367.582 194.447Z" fill="#C9CAC2"/>
<path d="M449.517 442.344C449.232 447.504 452.347 451.873 456.475 452.102C460.604 452.33 466.051 448.436 466.336 443.275C466.622 438.115 463.507 433.746 459.379 433.517C455.25 433.289 449.803 437.183 449.517 442.344Z" fill="#C9CAC2"/>
<path d="M467.5 493.226C467.72 495.911 469.868 499.687 472.174 499.498C474.479 499.309 478.22 495.185 478 492.5C477.78 489.815 475.305 487.811 473 488C470.695 488.189 467.28 490.541 467.5 493.226Z" fill="#C9CAC2"/>
<path d="M216 92C216.286 97.1605 213.128 102.272 209 102.5C204.872 102.729 197.786 98.6606 197.5 93.5001C197.214 88.3396 200.872 82.2287 205 82.0002C209.128 81.7716 215.714 86.8395 216 92Z" fill="#C9CAC2"/>
<path d="M476 469.195C473.637 471.237 468.633 471.89 467 470C465.367 468.11 463.637 461.756 466 459.715C471 456 475.867 457.824 477.5 459.714C479.133 461.605 478.363 467.154 476 469.195Z" fill="#C9CAC2"/>
<path d="M443.454 472.144C445.391 473.818 449.494 474.354 450.833 472.804C452.172 471.254 453.59 466.045 451.653 464.371C447.553 461.326 443.563 462.821 442.224 464.371C440.885 465.921 441.516 470.47 443.454 472.144Z" fill="#C9CAC2"/>
<path d="M491.625 500.676C489.805 502.249 485.952 502.752 484.694 501.296C483.436 499.84 482.104 494.948 483.924 493.375C487.774 490.515 491.522 491.919 492.78 493.375C494.038 494.831 493.445 499.104 491.625 500.676Z" fill="#C9CAC2"/>
<path d="M454.297 502.5C451.444 504.965 444.972 503.783 443 501.5C441.028 499.217 441.647 493.95 444.5 491.485C447.353 489.02 452.325 489.202 454.297 491.485C456.269 493.768 457.15 500.035 454.297 502.5Z" fill="#C9CAC2"/>
<path d="M301.504 438.508C306.599 437.635 309.802 439.925 310.5 444C310.928 446.5 315.934 444.587 319 445.5C322.638 446.584 325.571 447.961 325.5 448.5C325.421 449.098 324.5 453.5 320.5 450.5C315.5 448.5 315.5 447 310 450C307.5 451.364 306.899 453.674 304.349 454.111C299.255 454.984 297.198 451.575 296.5 447.5C295.802 443.425 296.41 439.381 301.504 438.508Z" fill="#C9CAC2"/>
<path d="M264.172 292.201C266.387 295.626 267.602 300.443 264.862 302.215C262.123 303.987 255.225 302.844 253.011 299.42C250.796 295.995 251.221 291.782 253.961 290.01C256.701 288.238 261.957 288.776 264.172 292.201Z" fill="#C9CAC2"/>
<path d="M174.545 69.1858C174.676 71.5675 174.388 74.4408 173.5 76.5C173.168 78.5 173.352 83.2765 170.852 82.2765C168.852 81.4765 167.556 82.1803 165.818 82.2765C160.671 82.5615 151.837 77.4896 151.481 71.056C151.124 64.6224 155.684 57.0039 160.831 56.719C165.978 56.434 174.188 62.7522 174.545 69.1858Z" fill="#C9CAC2"/>
<path d="M173 104.871C173.274 109.828 171.543 114.665 165.5 115C161.534 115.22 155.771 109.828 155.497 104.871C155.222 99.9133 158.215 95.7165 162.181 95.497C166.147 95.2774 172.726 99.9133 173 104.871Z" fill="#C9CAC2"/>
</g>
<defs>
<linearGradient id="paint0_linear_151_1592" x1="338.256" y1="1718" x2="338.256" y2="2009.54" gradientUnits="userSpaceOnUse">
<stop stop-color="#C9CAC2"/>
<stop offset="1" stop-color="#C9CAC2" stop-opacity="0"/>
</linearGradient>
<linearGradient id="paint1_linear_151_1592" x1="329.876" y1="1631.5" x2="329.876" y2="2011.5" gradientUnits="userSpaceOnUse">
<stop stop-color="#C9CAC2"/>
<stop offset="1" stop-color="#C9CAC2" stop-opacity="0"/>
</linearGradient>
<clipPath id="clip0_151_1592">
<rect width="544" height="2018" fill="white"/>
</clipPath>
</defs>
</svg>
