<svg width="544" height="2018" viewBox="0 0 544 2018" fill="none" xmlns="http://www.w3.org/2000/svg">
<g clip-path="url(#clip0_151_1592)">
<path d="M309.397 509.98C308.123 509.577 306.915 509.196 305.781 508.845C293.987 503.924 287.118 499.212 282.114 495.779C280.947 494.979 279.882 494.248 278.879 493.6C289.028 490.743 306.914 488.107 323.687 489.264C343.009 490.597 357.305 502.296 371.424 514.169C362.764 519.126 351.25 519.424 339.476 517.65C328.394 515.98 317.555 512.556 309.397 509.98Z" stroke="#C9CAC2" stroke-width="4.58"/>
<path d="M316.015 435.753C316.929 435.828 317.811 435.913 318.658 436.016C310.871 424.858 293.958 406.597 274.879 393.545C253.372 378.832 228.463 379.467 203.914 380.225C208.803 393.465 221.459 403.775 235.915 411.852C248.425 418.841 261.899 423.958 272.076 427.822C273.727 428.449 275.292 429.043 276.751 429.607C289.492 433.185 299.112 434.427 306.455 435.053C308.302 435.21 310.008 435.329 311.595 435.436C311.785 435.449 311.973 435.462 312.159 435.474C313.529 435.567 314.818 435.654 316.015 435.753ZM203.42 380.241C203.42 380.241 203.42 380.241 203.42 380.241L203.42 380.241Z" stroke="#C9CAC2" stroke-width="4.58"/>
<path d="M262.695 285.708C274.748 301.255 289.216 321.094 299.469 344.29C307.862 354.495 315.405 358.458 322.391 361.957C322.645 362.085 322.899 362.212 323.153 362.338C328.824 365.173 334.321 367.921 339.314 373.66C340.093 359.767 339.19 335.747 326.608 317.29C314.123 298.976 298.895 289.69 283.412 281.832C280.782 280.498 278.133 279.2 275.483 277.902C263.79 272.175 252.071 266.435 241.902 257.465C242.05 257.753 242.21 258.051 242.382 258.36C243.546 260.448 245.166 262.871 247.175 265.637C249.875 269.354 253.186 273.569 256.905 278.304C258.743 280.644 260.681 283.111 262.695 285.708Z" stroke="#C9CAC2" stroke-width="4.58"/>
<path d="M250.616 343.031C252.48 345.713 254.425 348.221 256.526 350.45C255.504 350.118 254.41 349.752 253.236 349.358C252.891 349.243 252.539 349.125 252.18 349.005C246.69 347.17 239.766 344.918 231.449 343.255C211.899 339.345 191.769 328.092 178.94 317.72C158.806 301.441 153.391 296.819 145.434 284.274C139.292 274.591 134.197 265.609 129.111 251.752C130.441 251.941 132.261 252.62 134.808 253.903C136.653 254.832 138.628 255.937 140.859 257.185C142.685 258.207 144.682 259.324 146.921 260.52L147.16 260.648L147.422 260.716C166.621 265.725 179.016 272.812 199.201 284.354C202.783 286.402 206.61 288.59 210.764 290.933C224.294 300.699 232.722 313.646 240.019 325.851C240.764 327.097 241.499 328.339 242.228 329.571C245.05 334.338 247.78 338.949 250.616 343.031Z" stroke="#C9CAC2" stroke-width="4.58"/>
<path d="M464.501 2021.54L412.786 1859C336.378 1564.83 601.898 817.573 466.272 597.898C462.639 591.09 457.928 581.763 452.859 571M418 472.5C415.338 455.107 414.125 438.595 411.006 419.5M418 472.5C418.49 475.7 419.131 479.044 419.902 482.5M418 472.5C407.855 462.129 392.647 445.822 378.125 428.766M355 269C362.637 283.44 369.228 296.719 374.932 309M319 187C321.298 192.657 326.11 204.128 332.867 219.623M411.006 419.5C413.004 410.833 418.8 391.4 426 383C435 372.5 446.5 314 418 283.5M411.006 419.5C406.466 391.705 397.89 358.435 374.932 309M374.932 309C375.301 300.304 375.891 288.541 376.661 276M384 206C382.156 212.372 380.473 226.581 379.053 243M364 213.5C364.674 219.788 367.716 229.101 371 237.653M236 157C182.8 119 170.5 93.5 171 85.5M236 157C229.167 152.667 214.2 136.8 209 108M236 157C238.344 158.674 240.678 160.376 243 162.103M243 162.103C227.667 156.735 191.8 141.2 171 122M243 162.103C266.456 179.539 288.717 199.45 307.5 217.827M452.859 571C452.165 569.526 451.465 568.025 450.759 566.5C450.301 565.51 449.841 564.51 449.379 563.5M452.859 571C455.334 563.458 459.21 549.884 461.573 537C463.075 528.814 463.966 520.905 463.5 515C462 496 457.5 478 458 461.5M449.379 563.5C431.419 550.833 390.7 523.4 371.5 515M449.379 563.5C437.905 538.409 425.485 507.507 419.902 482.5M419.902 482.5C414.49 476.755 392.238 464.978 368 456.122M338.5 372.5C343.771 386.118 360.44 407.997 378.125 428.766M378.125 428.766C358.139 414.697 325.592 393.192 297.5 375.728M247.5 347.5C255.649 350.512 275.167 361.843 297.5 375.728M297.5 375.728C294 363.152 282.2 332.2 263 309M368 456.122C365.516 455.214 363.01 454.337 360.5 453.5C346.325 448.775 332.381 442.672 321.487 437C319.557 435.995 317.723 435.004 316 434.036M368 456.122C362.509 459.378 346.592 469.712 323 461.5" stroke="#C9CAC2" stroke-width="4.58452"/>
<path d="M450 512C452.167 517.5 457.5 530.2 461.5 537" stroke="#C9CAC2" stroke-width="3"/>
<mask id="path-7-inside-1_151_1592" fill="white">
<path d="M421.26 287.787C383.597 276.999 352.769 276.867 317.5 256.5C271.246 221.695 248.364 209.8 244.951 198.588C244.525 197.189 246.085 196.258 247.408 196.88C327.634 234.57 312.742 196 375 238C399.144 254.288 416.876 274.931 421.733 287.292C421.849 287.588 421.566 287.874 421.26 287.787Z"/>
</mask>
<path d="M317.5 256.5L315.21 260.466L314.969 260.327L314.746 260.16L317.5 256.5ZM421.26 287.787L419.999 292.19L419.999 292.19L421.26 287.787ZM421.733 287.292L425.995 285.617L425.995 285.617L421.733 287.292ZM375 238L372.439 241.797L372.439 241.797L375 238ZM247.408 196.88L245.461 201.025L245.461 201.025L247.408 196.88ZM244.951 198.588L240.569 199.922L240.569 199.922L244.951 198.588ZM319.79 252.534C336.89 262.408 352.938 267.404 369.523 271.275C385.897 275.098 403.596 277.963 422.521 283.384L419.999 292.19C401.261 286.823 384.714 284.228 367.441 280.196C350.379 276.213 333.379 270.958 315.21 260.466L319.79 252.534ZM417.47 288.967C415.341 283.549 410.125 275.786 402.231 267.223C394.41 258.738 384.211 249.739 372.439 241.797L377.561 234.203C389.933 242.549 400.672 252.015 408.967 261.014C417.189 269.934 423.267 278.673 425.995 285.617L417.47 288.967ZM372.439 241.797C357.04 231.409 346.687 226.194 338.628 223.5C330.682 220.844 324.755 220.559 317.838 220.403C310.807 220.243 302.803 220.219 291.47 217.776C280.18 215.343 265.732 210.549 245.461 201.025L249.356 192.735C269.197 202.056 282.973 206.574 293.4 208.822C303.783 211.06 310.989 211.085 318.046 211.245C325.216 211.407 332.254 211.711 341.533 214.813C350.699 217.877 361.831 223.591 377.561 234.203L372.439 241.797ZM249.332 197.254C249.849 198.952 251.261 201.141 254.405 204.179C257.512 207.182 261.921 210.653 267.864 215C279.556 223.553 297.162 235.464 320.254 252.84L314.746 260.16C291.585 242.731 274.622 231.292 262.456 222.393C256.471 218.015 251.628 214.234 248.039 210.766C244.487 207.333 241.759 203.831 240.569 199.922L249.332 197.254ZM245.461 201.025C246.212 201.378 247.184 201.366 248.038 200.804C248.488 200.509 248.959 200.019 249.236 199.309C249.526 198.566 249.507 197.827 249.332 197.254L240.569 199.922C239.71 197.098 240.971 194.487 243.009 193.148C244.868 191.927 247.281 191.76 249.356 192.735L245.461 201.025ZM422.521 283.384C419.601 282.547 416.041 285.329 417.47 288.967L425.995 285.617C427.658 289.848 423.531 293.201 419.999 292.19L422.521 283.384Z" fill="#C9CAC2" mask="url(#path-7-inside-1_151_1592)"/>
<path d="M255.583 129.281C258.254 133.852 261.005 138.679 263.506 143.887C275.012 161.98 282.467 168.287 290.303 172.592C292.693 173.905 295.238 175.078 298.023 176.361C303.711 178.983 310.395 182.063 318.784 187.733C318.634 182.277 317.139 174.651 313.983 165.609C310.128 154.564 303.863 141.608 294.837 128.269C290.131 121.312 287.036 113.416 285.285 105.295C277.767 70.4255 257.098 56.6083 240.414 45.4549C237.608 43.5793 234.915 41.7791 232.417 39.9668C232.889 41.346 233.383 42.7405 233.886 44.1603C238.048 55.9117 242.823 69.3921 241.284 90.1692C240.606 99.3133 243.533 107.44 248.025 116.017C249.882 119.563 251.975 123.13 254.17 126.869C254.637 127.665 255.108 128.468 255.583 129.281Z" stroke="#C9CAC2" stroke-width="4.58"/>
<path d="M472 510C470.333 514 466.3 522.4 463.5 524M486 513C479.5 515.667 465.9 522 463.5 526" stroke="#C9CAC2" stroke-width="2"/>
<path d="M463 499.5L467.5 494C468.5 491.667 470.4 485.6 470 480M461 498.5C458 495.167 451.7 487.4 450.5 483" stroke="#C9CAC2" stroke-width="2"/>
<path d="M390.932 2023.5C457.545 1690.35 568.891 1331.15 403.235 993.313C382.527 958.389 349.679 851.961 170 791.521" stroke="#C9CAC2" stroke-width="4.58452"/>
<path d="M354.204 809.622C355.272 810.067 356.803 810.268 358.158 810.106C359.591 809.934 360.391 809.424 360.614 808.888C360.742 808.581 360.803 808.053 360.716 807.326C360.632 806.62 360.421 805.822 360.106 805.041C359.791 804.26 359.385 803.528 358.933 802.945C358.473 802.352 358.014 801.975 357.611 801.807C355.612 800.973 353.294 802.041 352.625 803.644C352.276 804.481 352.176 805.824 352.469 807.088C352.764 808.366 353.387 809.281 354.204 809.622Z" stroke="#C9CAC2" stroke-width="2"/>
<path d="M344.849 845.76C346.344 846.383 348.4 846.751 350.175 846.691C351.061 846.661 351.819 846.526 352.379 846.303C352.944 846.078 353.194 845.812 353.289 845.586C353.409 845.298 353.448 844.745 353.27 843.924C353.098 843.136 352.753 842.227 352.273 841.324C351.289 839.473 349.875 837.893 348.554 837.342C347.128 836.747 345.638 836.706 344.423 837.046C343.19 837.391 342.354 838.087 342.033 838.858C341.68 839.705 341.658 841.153 342.152 842.594C342.639 844.014 343.558 845.221 344.849 845.76Z" stroke="#C9CAC2" stroke-width="2"/>
<path d="M264.489 953.188C267.562 953.167 272.043 951.521 272.029 949.481C272.015 947.44 267.653 943.883 264.581 943.904C261.508 943.925 259.014 945.972 259.028 948.013C259.041 950.053 261.417 953.209 264.489 953.188Z" fill="#C9CAC2"/>
<path d="M65.6838 804.067C67.1744 801.47 71.7562 799.998 73.8334 801.191C75.9107 802.383 81.7711 805.307 80.2805 807.903C76.9343 812.85 71.9525 812.744 69.8752 811.551C67.7979 810.359 64.1932 806.663 65.6838 804.067Z" fill="#C9CAC2"/>
<path d="M187.032 900.392C189.375 899.36 194.368 896.936 193.543 895.061C192.718 893.186 185.874 888.618 183.531 889.65C179.02 892.045 178.658 896.291 179.483 898.166C180.308 900.04 184.688 901.423 187.032 900.392Z" fill="#C9CAC2"/>
<path d="M202.432 874.981C204.373 876.65 208.443 880.424 207.108 881.977C205.773 883.53 197.895 885.907 195.953 884.237C192.336 880.632 193.226 876.465 194.562 874.912C195.897 873.359 200.49 873.312 202.432 874.981Z" fill="#C9CAC2"/>
<path d="M172.446 835.689C173.613 836.693 176.06 838.961 175.257 839.895C174.454 840.828 169.718 842.257 168.551 841.254C166.377 839.086 166.912 836.581 167.715 835.647C168.517 834.714 171.279 834.686 172.446 835.689Z" fill="#C9CAC2"/>
<path d="M185.394 829.625C186.562 830.628 189.009 832.897 188.206 833.83C187.403 834.764 182.667 836.193 181.5 835.189C179.325 833.022 179.861 830.517 180.663 829.583C181.466 828.649 184.227 828.621 185.394 829.625Z" fill="#C9CAC2"/>
<path d="M255.897 916.998C254.889 917.869 253.34 918.578 251.892 918.89C251.172 919.045 250.53 919.09 250.031 919.034C249.513 918.975 249.286 918.826 249.205 918.733C249.023 918.521 248.783 918.07 248.577 917.396C248.378 916.745 248.237 915.966 248.198 915.17C248.116 913.518 248.48 912.113 249.265 911.417C253.846 907.914 257.336 909.188 258.12 910.096C258.215 910.206 258.351 910.507 258.37 911.105C258.389 911.673 258.295 912.377 258.09 913.13C257.673 914.66 256.856 916.17 255.897 916.998Z" stroke="#C9CAC2" stroke-width="2"/>
<path d="M200.364 931.08C199.034 931.169 197.371 930.804 196.026 930.181C195.358 929.872 194.818 929.521 194.454 929.176C194.075 928.818 193.983 928.562 193.975 928.439C193.956 928.16 194.036 927.655 194.278 926.993C194.511 926.353 194.866 925.647 195.314 924.987C196.243 923.618 197.378 922.715 198.425 922.631C204.192 922.59 206.212 925.707 206.292 926.904C206.302 927.049 206.23 927.372 205.885 927.861C205.558 928.326 205.06 928.832 204.443 929.31C203.189 930.281 201.627 930.995 200.364 931.08Z" stroke="#C9CAC2" stroke-width="2"/>
<path d="M285.345 924.653C287.197 925.101 288.987 925.262 290.183 925.199C292.393 924.844 293.752 923.638 294.86 922.655C294.983 922.546 295.103 922.439 295.222 922.336C293.7 921.445 291.24 920.39 288.712 919.914C286.07 919.416 283.412 920.324 280.621 921.578C280.346 921.702 280.2 921.919 280.162 922.091C280.144 922.174 280.151 922.241 280.168 922.292C280.185 922.338 280.22 922.402 280.311 922.471C281.623 923.47 283.464 924.198 285.345 924.653Z" stroke="#C9CAC2" stroke-width="2"/>
<path d="M126.651 830.369C128.194 829.252 129.479 827.995 130.208 827.044C131.373 825.133 131.339 823.317 131.31 821.836C131.307 821.671 131.304 821.51 131.303 821.353C129.637 821.932 127.237 823.117 125.233 824.731C123.14 826.417 122.104 829.027 121.245 831.964C121.16 832.254 121.231 832.506 121.338 832.647C121.389 832.715 121.444 832.753 121.494 832.772C121.54 832.79 121.611 832.804 121.723 832.78C123.335 832.432 125.083 831.504 126.651 830.369Z" stroke="#C9CAC2" stroke-width="2"/>
<path d="M152.931 848.278C154.042 849.488 155.234 850.461 156.115 850.995C157.896 851.828 159.489 851.622 160.801 851.452C160.888 851.441 160.975 851.43 161.06 851.419C160.373 850.015 159.123 848.086 157.557 846.525C155.933 844.908 153.636 844.235 151.04 843.762C150.745 843.708 150.509 843.806 150.39 843.921C150.333 843.975 150.306 844.028 150.295 844.073C150.285 844.113 150.28 844.18 150.318 844.285C150.817 845.639 151.799 847.046 152.931 848.278Z" stroke="#C9CAC2" stroke-width="2"/>
<path d="M65.2359 828.291C66.8851 829.244 68.557 829.904 69.7219 830.182C71.942 830.466 73.5865 829.694 74.927 829.064C75.0764 828.994 75.2221 828.925 75.3644 828.86C74.1566 827.575 72.0956 825.868 69.8051 824.696C67.4119 823.473 64.6056 823.592 61.5741 824.005C61.2745 824.046 61.0736 824.213 60.9883 824.368C60.9474 824.443 60.9352 824.509 60.9378 824.562C60.9402 824.611 60.9564 824.682 61.0237 824.774C61.9994 826.104 63.56 827.322 65.2359 828.291Z" stroke="#C9CAC2" stroke-width="2"/>
<path d="M252.118 875.822C252.536 875.917 252.911 876.001 253.23 876.078C254.902 876.311 257.942 876.478 261.001 876.614C261.996 876.658 262.992 876.698 263.937 876.737C264.708 876.768 265.444 876.798 266.117 876.827C265.036 876.187 263.735 875.467 262.39 874.745C260.629 873.799 258.843 872.877 257.456 872.16C256.934 871.89 256.468 871.65 256.081 871.448C255.542 871.167 254.673 870.947 253.512 870.812C252.372 870.679 251.037 870.636 249.621 870.655C246.791 870.694 243.722 870.983 241.418 871.258C241.111 871.295 240.952 871.457 240.909 871.542C240.899 871.562 240.897 871.573 240.896 871.578C240.9 871.589 240.917 871.621 240.972 871.67C242.299 872.853 244.647 873.81 247.127 874.556C248.974 875.112 250.772 875.518 252.118 875.822ZM240.896 871.581C240.896 871.581 240.896 871.58 240.896 871.579C240.896 871.58 240.896 871.581 240.896 871.581ZM240.895 871.574C240.895 871.574 240.895 871.575 240.896 871.577C240.896 871.575 240.895 871.574 240.895 871.574Z" stroke="#C9CAC2" stroke-width="2"/>
<path d="M170.815 723.287C171.206 723.466 171.555 723.626 171.851 723.767C173.439 724.341 176.378 725.133 179.343 725.898C180.308 726.146 181.274 726.392 182.19 726.625C182.938 726.815 183.653 726.997 184.305 727.164C183.379 726.314 182.255 725.341 181.089 724.356C179.561 723.067 178.005 721.795 176.796 720.808C176.34 720.436 175.934 720.104 175.597 719.826C175.128 719.44 174.324 719.046 173.216 718.673C172.128 718.307 170.83 717.989 169.441 717.716C166.664 717.169 163.602 716.816 161.29 716.61C160.982 716.582 160.793 716.708 160.734 716.783C160.72 716.799 160.715 716.81 160.714 716.815C160.716 716.826 160.725 716.861 160.769 716.92C161.822 718.352 163.923 719.774 166.194 721.016C167.886 721.942 169.562 722.711 170.815 723.287ZM160.713 716.818C160.713 716.818 160.713 716.817 160.714 716.816C160.713 716.817 160.713 716.818 160.713 716.818ZM160.714 716.811C160.713 716.811 160.713 716.812 160.714 716.814C160.714 716.812 160.714 716.811 160.714 716.811Z" stroke="#C9CAC2" stroke-width="2"/>
<path d="M223.131 752.324C223.178 753.648 223.214 754.904 223.21 756.012C224.73 753.851 226.622 750.683 227.592 748.581C228.223 747.213 228.5 744.917 228.13 742.249C227.764 739.606 226.776 736.71 225.009 734.17C224.903 734.018 224.763 733.941 224.676 733.923C224.654 733.919 224.641 733.919 224.634 733.919C224.632 733.921 224.628 733.925 224.623 733.931C223.977 734.655 223.496 736.071 223.214 738.116C222.938 740.109 222.873 742.503 222.901 744.995C222.923 746.9 222.997 748.833 223.068 750.665C223.09 751.228 223.111 751.783 223.131 752.324ZM224.638 733.917C224.638 733.917 224.637 733.917 224.637 733.917C224.637 733.917 224.638 733.917 224.638 733.917Z" stroke="#C9CAC2" stroke-width="2"/>
<path d="M144.64 771.729C145.457 772.684 146.228 773.597 146.887 774.427C146.729 771.874 146.255 768.381 145.728 766.224C145.382 764.813 144.212 762.91 142.325 761.111C140.457 759.33 137.967 757.73 135.101 756.866C134.925 756.813 134.77 756.84 134.693 756.879C134.678 756.887 134.669 756.893 134.664 756.897C134.663 756.9 134.663 756.904 134.663 756.908C134.621 757.849 135.118 759.211 136.139 760.929C137.135 762.603 138.529 764.453 140.052 766.322C141.218 767.753 142.44 769.173 143.6 770.519C143.953 770.93 144.301 771.333 144.64 771.729Z" stroke="#C9CAC2" stroke-width="2"/>
<path d="M359.5 808.442C370.587 822.738 387.019 844.321 392.983 874.442M392.983 874.442C390.988 869.109 382.6 854.542 365 838.942M392.983 874.442C395.563 887.476 396.183 902.109 393.561 918.442M393.561 918.442C391.858 929.049 388.788 940.373 384 952.442V957.442C377.161 956.976 362.466 956.335 355 957.224M393.561 918.442C394.707 914.442 392.3 900.742 373.5 877.942C354.7 855.142 354 847.942 353 843.442M269 947.442C276.5 954.942 280 953.442 294.5 958.942C299.364 960.787 306.647 961.394 314.5 961.33M355 957.224C354.46 957.289 353.958 957.361 353.5 957.442C347.851 958.439 330.058 961.202 314.5 961.33M355 957.224C348.471 955.744 336.219 952.123 328.713 947.442M294.5 921.942C300.434 925.167 311.681 931.907 318.686 937.942M328.713 947.442C326.447 946.029 324.613 944.519 323.5 942.942C322.415 941.405 320.732 939.704 318.686 937.942M328.713 947.442C321.142 948.275 305.1 948.942 301.5 944.942C297.9 940.942 290 937.275 286.5 935.942M314.5 961.33C308.667 965.867 291 971.742 267 958.942M318.686 937.942C320.124 936.275 319.7 930.442 306.5 920.442" stroke="#C9CAC2" stroke-width="2" stroke-linejoin="round"/>
<path d="M160.187 851.422C167.877 856.95 170.745 855.123 184.314 857.88C188.866 858.804 195.371 858.289 202.282 857.1C215.972 854.745 231.253 849.745 236.087 848.052C236.479 847.915 236.911 847.779 237.377 847.645M237.377 847.645C243.827 845.785 256.869 844.23 262.962 843.655C271.879 842.814 274.142 843.082 297 857.88M237.377 847.645C231.411 847.281 220.093 845.857 212.804 842.814M186.283 833.518C191.977 835.504 195.556 831.581 202.599 835.888M212.804 842.814C210.603 841.895 208.77 840.829 207.561 839.6C206.384 838.403 204.655 837.146 202.599 835.888M212.804 842.814C206.252 844.64 192.213 847.54 188.464 844.534C184.715 841.528 177.226 839.436 173.949 838.766M202.599 835.888C203.626 834.213 202.411 829.134 189.338 822.225" stroke="#C9CAC2" stroke-width="2" stroke-linejoin="round"/>
<path d="M341.043 895.061C335.814 889.831 319.373 880.805 294.043 884.4M290.043 885.061C291.4 884.805 292.733 884.586 294.043 884.4M290.043 885.061C285.543 889.728 275.543 899.661 271.543 902.061C267.543 904.461 260.876 908.394 258.043 910.061M290.043 885.061C283.323 886.327 277.139 888.251 271.543 890.546M207.043 926.561C211.443 927.761 229.543 918.728 238.043 914.061C242.456 908.387 254.157 897.677 271.543 890.546M294.043 884.4C293.376 883.287 290.743 880.761 285.543 879.561C279.043 878.061 270.043 879.561 265.043 876.061M271.543 890.546C266.533 893.123 259.713 896.076 252.043 898.601M192.543 896.061C206.233 907.872 229.095 905.478 248.043 899.853M252.043 898.601C250.733 899.032 249.398 899.451 248.043 899.853M252.043 898.601L248.043 899.853M248.043 899.853C243.71 900.412 232.443 897.334 222.043 888.546C211.643 879.758 205.043 879.894 203.043 881.061" stroke="#C9CAC2" stroke-width="2" stroke-linejoin="round"/>
<path d="M169.5 792.5C173.5 792.5 172.69 791.537 174 791.351C173.689 790.832 168.488 789.785 162.5 788.693M169.5 792.5C164.5 801 154 805.208 144 809C139.638 810.654 133.333 820.333 130.5 822M169.5 792.5C162.662 792.5 146.351 790.985 139 794M74 829C106.5 839 119.39 802.043 139 794M124.5 782C129.5 785.5 138.5 784 145 785.5C147.774 786.14 155.652 787.446 162.5 788.693M139 794C127.5 797 119.17 797.015 111.5 799.54M111.5 799.54C110.19 799.971 108.855 800.39 107.5 800.792M111.5 799.54L107.5 800.792M107.5 800.792C95.7041 804.293 85.6855 807.527 76.5 806.62M107.5 800.792C105.053 801.108 101.862 797.63 96.7561 794M162.5 788.693C158.833 787.796 150.5 781 146.5 773" stroke="#C9CAC2" stroke-width="2" stroke-linejoin="round"/>
<path d="M255.119 772.237C257.277 773.616 261.839 776.777 260.737 778.503C259.634 780.229 252.17 783.694 250.013 782.315C245.923 779.257 246.216 775.005 247.319 773.279C248.421 771.553 252.962 770.859 255.119 772.237Z" fill="#C9CAC2"/>
<path d="M275.584 821.757C274.687 820.771 273.938 819.242 273.589 817.802C273.416 817.086 273.355 816.445 273.398 815.945C273.443 815.426 273.586 815.195 273.677 815.112C273.884 814.924 274.329 814.672 274.997 814.45C275.644 814.234 276.418 814.073 277.213 814.013C278.863 813.889 280.276 814.216 280.992 814.983C284.612 819.473 283.428 822.994 282.541 823.802C282.433 823.899 282.136 824.044 281.538 824.078C280.971 824.111 280.265 824.036 279.507 823.85C277.966 823.472 276.436 822.694 275.584 821.757Z" stroke="#C9CAC2" stroke-width="2"/>
<path d="M275.003 769.631C273.78 769.102 272.468 768.016 271.557 766.847C271.105 766.267 270.785 765.708 270.619 765.235C270.446 764.743 270.481 764.473 270.53 764.36C270.641 764.104 270.943 763.691 271.46 763.213C271.961 762.751 272.6 762.285 273.3 761.903C274.752 761.11 276.175 760.827 277.144 761.231C282.291 763.832 282.662 767.528 282.185 768.63C282.128 768.763 281.916 769.017 281.385 769.294C280.882 769.558 280.207 769.78 279.44 769.923C277.881 770.213 276.166 770.134 275.003 769.631Z" stroke="#C9CAC2" stroke-width="2"/>
<path d="M118.003 783.631C116.78 783.102 115.468 782.016 114.557 780.847C114.105 780.267 113.785 779.708 113.619 779.235C113.446 778.743 113.481 778.473 113.53 778.36C113.641 778.104 113.943 777.691 114.46 777.213C114.961 776.751 115.6 776.285 116.3 775.903C117.752 775.11 119.175 774.827 120.144 775.231C125.291 777.832 125.662 781.528 125.185 782.63C125.128 782.763 124.916 783.017 124.385 783.294C123.882 783.558 123.207 783.78 122.44 783.923C120.881 784.213 119.166 784.134 118.003 783.631Z" stroke="#C9CAC2" stroke-width="2"/>
<path d="M89.0033 794.631C87.7804 794.102 86.4681 793.016 85.5573 791.847C85.105 791.267 84.7849 790.708 84.6186 790.235C84.4458 789.743 84.4814 789.473 84.5303 789.36C84.6413 789.104 84.943 788.691 85.4605 788.213C85.9607 787.751 86.6 787.285 87.2997 786.903C88.7517 786.11 90.1748 785.827 91.1435 786.231C96.2905 788.832 96.6617 792.528 96.1853 793.63C96.1277 793.763 95.9156 794.017 95.3853 794.294C94.8819 794.558 94.2074 794.78 93.4401 794.923C91.8808 795.213 90.1659 795.134 89.0033 794.631Z" stroke="#C9CAC2" stroke-width="2"/>
<path d="M157.119 725.237C159.277 726.616 163.839 729.777 162.737 731.503C161.634 733.229 154.17 736.694 152.013 735.315C147.923 732.257 148.216 728.005 149.319 726.279C150.421 724.553 154.962 723.859 157.119 725.237Z" fill="#C9CAC2"/>
<path d="M316.732 860C311.952 855.621 305.655 856.21 297 840C294.803 835.885 284.239 826.789 282.5 824M316.732 860C318.275 867.166 316.875 872.5 316.875 872.5M316.732 860C315.651 854.976 313.212 847.336 311.032 841.5M259 777.5C292.5 799.5 304.78 826.854 309.012 836.461C309.618 837.837 310.311 839.57 311.032 841.5M282.5 768C299.5 777.5 305.019 813.5 305.019 828M311.032 841.5C311.021 836.305 316.432 823.667 314.032 813.5C311.032 800.792 309.993 784.5 312.012 780" stroke="#C9CAC2" stroke-width="2" stroke-linejoin="round"/>
<path d="M177.697 775.632C176.528 774.993 175.321 773.791 174.521 772.543C174.124 771.924 173.857 771.338 173.735 770.851C173.608 770.346 173.668 770.081 173.727 769.972C173.861 769.727 174.199 769.344 174.759 768.916C175.299 768.501 175.979 768.096 176.71 767.78C178.229 767.124 179.672 766.973 180.6 767.464C185.486 770.527 185.516 774.242 184.941 775.295C184.871 775.422 184.636 775.655 184.083 775.883C183.557 776.099 182.865 776.258 182.088 776.33C180.509 776.475 178.808 776.239 177.697 775.632Z" stroke="#C9CAC2" stroke-width="2"/>
<path d="M183.474 821.674C182.448 821.113 181.383 820.055 180.677 818.953C180.326 818.406 180.094 817.893 179.988 817.473C179.878 817.034 179.937 816.829 179.972 816.766C180.081 816.566 180.37 816.235 180.864 815.856C181.339 815.492 181.938 815.134 182.584 814.856C183.929 814.274 185.176 814.155 185.96 814.568C190.291 817.285 190.273 820.543 189.796 821.415C189.751 821.498 189.568 821.694 189.083 821.893C188.626 822.081 188.019 822.221 187.333 822.285C185.936 822.413 184.441 822.203 183.474 821.674Z" stroke="#C9CAC2" stroke-width="2"/>
<path d="M194.003 711.631C192.78 711.102 191.468 710.016 190.557 708.847C190.105 708.267 189.785 707.708 189.619 707.235C189.446 706.743 189.481 706.473 189.53 706.36C189.641 706.104 189.943 705.691 190.46 705.213C190.961 704.751 191.6 704.285 192.3 703.903C193.752 703.11 195.175 702.827 196.144 703.231C201.291 705.832 201.662 709.528 201.185 710.63C201.128 710.763 200.916 711.017 200.385 711.294C199.882 711.558 199.207 711.78 198.44 711.923C196.881 712.213 195.166 712.134 194.003 711.631Z" stroke="#C9CAC2" stroke-width="2"/>
<path d="M315.479 768.981C315.29 769.367 315.121 769.712 314.973 770.005C314.152 772.11 312.971 776.273 312.003 779.687C311.824 780.317 311.652 780.922 311.491 781.484C311.471 781.554 311.465 781.61 311.465 781.651C311.473 781.644 311.482 781.636 311.491 781.628C313.921 779.307 317.235 775.678 318.82 773.848C319.218 773.388 319.632 772.594 320.032 771.495C320.424 770.417 320.775 769.127 321.083 767.746C321.698 764.983 322.126 761.93 322.39 759.624C322.426 759.318 322.304 759.125 322.231 759.064C322.215 759.05 322.204 759.045 322.2 759.043C322.188 759.045 322.153 759.054 322.093 759.096C320.635 760.114 319.162 762.178 317.863 764.418C316.896 766.087 316.085 767.742 315.479 768.981ZM322.197 759.043C322.197 759.043 322.197 759.043 322.199 759.043C322.198 759.043 322.197 759.043 322.197 759.043Z" stroke="#C9CAC2" stroke-width="2"/>
<path d="M232 807.5C196 789.5 198 777.5 184.5 773M232 807.5C238.81 818.501 255.5 828.5 255.5 828.5M232 807.5C227.197 799.742 220.86 795.442 217 791.371M161 730.5C194.5 752.5 205.268 765.893 209.5 775.5M209.5 775.5C210.106 776.876 213.291 785.07 214.012 787M209.5 775.5C209.5 773.352 209.675 770.623 209.919 767.5M200.5 710.5C214.982 718.593 211.322 749.544 209.919 767.5M214.012 787C212.5 761.5 219 772.5 223.5 754.5M214.012 787C214.581 788.524 215.636 789.933 217 791.371M209.919 767.5C208.113 759.167 203.5 741.4 199.5 737C195.5 732.6 186.5 727.167 182.5 726.5M217 791.371C212 781.414 192.5 760.101 178.5 754.5C161 747.5 148.5 755.5 138.5 744.5" stroke="#C9CAC2" stroke-width="2" stroke-linejoin="round"/>
<path d="M392.476 197.601C392.762 202.761 389.647 207.13 385.519 207.359C381.39 207.587 375.943 203.692 375.657 198.532C375.372 193.371 378.487 189.003 382.615 188.774C386.744 188.546 392.191 192.44 392.476 197.601Z" fill="#C9CAC2"/>
<path d="M367.582 206.447C367.807 210.52 366.474 215.305 363.216 215.486C359.958 215.666 354.535 211.255 354.309 207.182C354.084 203.11 356.542 199.662 359.8 199.482C363.058 199.302 367.356 202.375 367.582 206.447Z" fill="#C9CAC2"/>
<path d="M449.517 454.344C449.232 459.504 452.347 463.873 456.475 464.102C460.604 464.33 466.051 460.436 466.336 455.275C466.622 450.115 463.507 445.746 459.379 445.517C455.25 445.289 449.803 449.183 449.517 454.344Z" fill="#C9CAC2"/>
<path d="M467.5 505.226C467.72 507.911 469.868 511.687 472.174 511.498C474.479 511.309 478.22 507.185 478 504.5C477.78 501.815 475.305 499.811 473 500C470.695 500.189 467.28 502.541 467.5 505.226Z" fill="#C9CAC2"/>
<path d="M216 104C216.286 109.161 213.128 114.272 209 114.5C204.872 114.729 197.786 110.661 197.5 105.5C197.214 100.34 200.872 94.2287 205 94.0002C209.128 93.7716 215.714 98.8395 216 104Z" fill="#C9CAC2"/>
<path d="M476 481.195C473.637 483.237 468.633 483.89 467 482C465.367 480.11 463.637 473.756 466 471.715C471 468 475.867 469.824 477.5 471.714C479.133 473.605 478.363 479.154 476 481.195Z" fill="#C9CAC2"/>
<path d="M443.454 484.144C445.391 485.818 449.494 486.354 450.833 484.804C452.172 483.254 453.59 478.045 451.653 476.371C447.553 473.326 443.563 474.821 442.224 476.371C440.885 477.921 441.516 482.47 443.454 484.144Z" fill="#C9CAC2"/>
<path d="M491.625 512.676C489.805 514.249 485.952 514.752 484.694 513.296C483.436 511.84 482.104 506.948 483.924 505.375C487.774 502.515 491.522 503.919 492.78 505.375C494.038 506.831 493.445 511.104 491.625 512.676Z" fill="#C9CAC2"/>
<path d="M454.297 514.5C451.444 516.965 444.972 515.783 443 513.5C441.028 511.217 441.647 505.95 444.5 503.485C447.353 501.02 452.325 501.202 454.297 503.485C456.269 505.768 457.15 512.035 454.297 514.5Z" fill="#C9CAC2"/>
<path d="M301.504 450.508C306.599 449.635 309.802 451.925 310.5 456C310.928 458.5 315.934 456.587 319 457.5C322.638 458.584 325.571 459.961 325.5 460.5C325.421 461.098 324.5 465.5 320.5 462.5C315.5 460.5 315.5 459 310 462C307.5 463.364 306.899 465.674 304.349 466.111C299.255 466.984 297.198 463.575 296.5 459.5C295.802 455.425 296.41 451.381 301.504 450.508Z" fill="#C9CAC2"/>
<path d="M264.172 304.201C266.387 307.626 267.602 312.443 264.862 314.215C262.123 315.987 255.225 314.844 253.011 311.42C250.796 307.995 251.221 303.782 253.961 302.01C256.701 300.238 261.957 300.776 264.172 304.201Z" fill="#C9CAC2"/>
<path d="M174.545 81.1858C174.676 83.5675 174.388 86.4408 173.5 88.5C173.168 90.5 173.352 95.2765 170.852 94.2765C168.852 93.4765 167.556 94.1803 165.818 94.2765C160.671 94.5615 151.837 89.4896 151.481 83.056C151.124 76.6224 155.684 69.0039 160.831 68.719C165.978 68.434 174.188 74.7522 174.545 81.1858Z" fill="#C9CAC2"/>
<path d="M173 116.871C173.274 121.828 171.543 126.665 165.5 127C161.534 127.22 155.771 121.828 155.497 116.871C155.222 111.913 158.215 107.717 162.181 107.497C166.147 107.277 172.726 111.913 173 116.871Z" fill="#C9CAC2"/>
</g>
<defs>
<clipPath id="clip0_151_1592">
<rect width="544" height="2018" fill="white"/>
</clipPath>
</defs>
</svg>
