<svg width="544" height="2018" viewBox="0 0 544 2018" fill="none" xmlns="http://www.w3.org/2000/svg">
<g opacity="0.8" clip-path="url(#clip0_151_1592)">
<path d="M323.808 616.984C322.611 616.606 321.476 616.248 320.411 615.918C309.334 611.297 302.883 606.871 298.183 603.647C297.087 602.895 296.086 602.208 295.144 601.6C304.677 598.917 321.475 596.441 337.229 597.528C355.377 598.78 368.804 609.767 382.065 620.919C373.931 625.574 363.117 625.854 352.059 624.188C341.65 622.62 331.47 619.404 323.808 616.984Z" stroke="#C9CAC2" stroke-width="4.30164"/>
<path d="M288.755 539.82C290.306 540.409 291.775 540.967 293.146 541.496C305.112 544.857 314.148 546.024 321.044 546.611C322.779 546.759 324.381 546.871 325.872 546.972C326.05 546.984 326.227 546.995 326.402 547.007C327.688 547.094 328.899 547.176 330.023 547.269C330.882 547.34 331.71 547.419 332.506 547.516C325.192 537.036 309.307 519.885 291.388 507.627C271.188 493.808 247.793 494.404 224.736 495.116C229.328 507.551 241.214 517.234 254.792 524.821C266.541 531.385 279.197 536.191 288.755 539.82Z" stroke="#C9CAC2" stroke-width="4.30164"/>
<path d="M279.944 406.344C291.265 420.946 304.853 439.579 314.483 461.365C322.366 470.95 329.451 474.671 336.012 477.958C336.251 478.078 336.489 478.197 336.727 478.316C342.054 480.979 347.217 483.559 351.906 488.95C352.638 475.901 351.79 453.341 339.973 436.006C328.246 418.805 313.944 410.083 299.402 402.703C296.932 401.45 294.444 400.231 291.955 399.012C280.973 393.633 269.966 388.241 260.415 379.817C260.554 380.087 260.704 380.367 260.866 380.658C261.959 382.619 263.481 384.894 265.368 387.492C267.904 390.984 271.013 394.942 274.506 399.389C276.233 401.587 278.053 403.904 279.944 406.344Z" stroke="#C9CAC2" stroke-width="4.30164"/>
<path d="M171.206 382.686L171.431 382.806L171.677 382.87C189.71 387.574 201.351 394.231 220.309 405.071C223.673 406.995 227.268 409.05 231.17 411.25C243.877 420.423 251.793 432.583 258.646 444.046C259.346 445.217 260.036 446.384 260.721 447.541C263.372 452.017 265.936 456.349 268.6 460.183C270.35 462.701 272.176 465.057 274.15 467.15C273.19 466.838 272.163 466.494 271.06 466.125C270.736 466.016 270.405 465.906 270.068 465.793C264.912 464.07 258.409 461.955 250.597 460.392C232.236 456.72 213.328 446.151 201.279 436.409C182.369 421.12 177.284 416.779 169.81 404.996C164.042 395.902 159.256 387.466 154.479 374.451C155.728 374.628 157.438 375.266 159.83 376.471C161.562 377.344 163.417 378.381 165.513 379.554C167.228 380.513 169.104 381.563 171.206 382.686Z" stroke="#C9CAC2" stroke-width="4.30164"/>
<path d="M469.485 2036.68L420.913 1884.01C349.148 1607.72 598.531 905.883 471.148 699.559C467.736 693.165 463.311 684.405 458.551 674.296M425.81 581.783C423.31 565.447 422.17 549.939 419.241 532.004M425.81 581.783C426.27 584.788 426.872 587.929 427.597 591.175M425.81 581.783C416.281 572.042 401.998 556.726 388.358 540.707M366.639 390.651C373.812 404.214 380.003 416.685 385.359 428.22M332.827 313.635C334.986 318.948 339.505 329.722 345.851 344.275M419.241 532.004C421.118 523.864 426.561 505.612 433.324 497.722C441.777 487.86 452.578 432.916 425.81 404.27M419.241 532.004C414.977 505.898 406.922 474.65 385.359 428.22M385.359 428.22C385.706 420.053 386.261 409.005 386.984 397.226M393.876 331.48C392.144 337.465 390.564 350.81 389.23 366.231M375.092 338.524C375.725 344.43 378.582 353.176 381.667 361.209M254.872 285.458C204.905 249.768 193.353 225.817 193.822 218.304M254.872 285.458C248.454 281.388 234.397 266.486 229.513 239.436M254.872 285.458C257.073 287.03 259.265 288.629 261.446 290.25M261.446 290.25C247.045 285.209 213.358 270.618 193.822 252.585M261.446 290.25C283.477 306.628 304.384 325.328 322.026 342.588M458.551 674.296C457.899 672.912 457.241 671.502 456.578 670.07C456.148 669.14 455.715 668.2 455.282 667.252M458.551 674.296C460.875 667.213 464.515 654.464 466.735 642.362C468.145 634.674 468.983 627.246 468.545 621.7C467.136 603.854 462.909 586.948 463.379 571.451M455.282 667.252C438.414 655.355 400.169 629.589 382.136 621.7M455.282 667.252C444.505 643.685 432.84 614.662 427.597 591.175M427.597 591.175C422.513 585.779 401.614 574.718 378.849 566.4M351.142 487.86C356.093 500.65 371.748 521.2 388.358 540.707M388.358 540.707C369.587 527.492 339.018 507.295 312.634 490.892M265.673 464.38C273.327 467.209 291.658 477.851 312.634 490.892M312.634 490.892C309.346 479.08 298.264 450.01 280.231 428.22M378.849 566.4C376.515 565.547 374.162 564.723 371.805 563.937C358.492 559.5 345.394 553.768 335.163 548.44C333.35 547.496 331.627 546.565 330.009 545.656M378.849 566.4C373.692 569.458 358.742 579.164 336.584 571.451" stroke="url(#paint0_linear_151_1592)" stroke-width="4.30588"/>
<path d="M455.865 618.882C457.9 624.048 462.909 635.976 466.666 642.362" stroke="#C9CAC2" stroke-width="2.81767"/>
<path d="M296.829 351.168C306.478 357.993 318.401 366.426 332.607 377.113C348.876 386.489 364.138 391.228 379.791 394.883C385.259 396.159 390.82 397.311 396.503 398.488C405.874 400.429 415.572 402.438 425.718 405.185C423.081 400.198 418.603 394.057 412.581 387.524C405.124 379.434 395.418 370.872 384.221 363.318C369.68 353.509 359.773 348.494 351.944 345.877C344.168 343.277 338.341 343.005 331.785 342.857C331.377 342.848 330.966 342.839 330.552 342.83C324.258 342.696 317.201 342.546 307.423 340.438C297.264 338.248 284.232 333.963 265.982 325.473C266.853 327.183 268.352 329.082 270.663 331.316C273.695 334.246 277.937 337.579 283.529 341.669C287.338 344.455 291.771 347.591 296.829 351.168Z" stroke="#C9CAC2" stroke-width="4.30164"/>
<path d="M273.264 259.423C275.773 263.717 278.357 268.25 280.706 273.141C291.512 290.135 298.515 296.059 305.874 300.102C308.119 301.335 310.51 302.437 313.125 303.642C318.467 306.104 324.745 308.998 332.625 314.322C332.483 309.199 331.079 302.036 328.115 293.544C324.494 283.17 318.61 271.001 310.133 258.472C305.713 251.939 302.806 244.522 301.161 236.895C294.1 204.145 274.688 191.168 259.017 180.692C256.382 178.931 253.853 177.24 251.506 175.538C251.95 176.833 252.414 178.143 252.886 179.476C256.795 190.513 261.28 203.174 259.834 222.689C259.198 231.277 261.947 238.91 266.165 246.965C267.91 250.296 269.876 253.646 271.937 257.158C272.376 257.905 272.819 258.66 273.264 259.423Z" stroke="#C9CAC2" stroke-width="4.30164"/>
<path d="M476.528 617.003C474.963 620.76 471.174 628.65 468.545 630.153M489.677 619.821C483.572 622.326 470.799 628.274 468.545 632.031" stroke="#C9CAC2" stroke-width="1.87844"/>
<path d="M468.075 607.141L472.302 601.976C473.241 599.784 475.025 594.086 474.65 588.827M466.197 606.202C463.379 603.072 457.462 595.777 456.335 591.644" stroke="#C9CAC2" stroke-width="1.87844"/>
<path d="M400.387 2038.52C462.952 1725.62 567.53 1388.24 411.943 1070.94C392.493 1038.14 361.642 938.18 192.883 881.414" stroke="url(#paint1_linear_151_1592)" stroke-width="4.30588"/>
<path d="M365.892 898.415C366.894 898.833 368.332 899.022 369.605 898.869C370.951 898.708 371.702 898.229 371.912 897.726C372.032 897.438 372.089 896.941 372.008 896.258C371.929 895.596 371.73 894.846 371.434 894.112C371.139 893.379 370.758 892.691 370.333 892.144C369.901 891.587 369.47 891.233 369.091 891.075C367.214 890.292 365.037 891.295 364.409 892.801C364.081 893.587 363.987 894.848 364.262 896.035C364.539 897.235 365.124 898.095 365.892 898.415Z" stroke="#C9CAC2" stroke-width="1.87844"/>
<path d="M357.105 932.356C358.509 932.942 360.44 933.287 362.107 933.23C362.94 933.202 363.652 933.075 364.177 932.866C364.708 932.655 364.943 932.405 365.032 932.193C365.144 931.922 365.181 931.403 365.014 930.632C364.853 929.892 364.529 929.038 364.078 928.19C363.154 926.451 361.826 924.967 360.584 924.45C359.245 923.891 357.846 923.852 356.705 924.172C355.546 924.496 354.762 925.15 354.46 925.874C354.128 926.669 354.108 928.029 354.572 929.382C355.03 930.717 355.892 931.85 357.105 932.356Z" stroke="#C9CAC2" stroke-width="1.87844"/>
<path d="M281.629 1033.25C284.515 1033.24 288.724 1031.69 288.711 1029.77C288.698 1027.86 284.601 1024.52 281.715 1024.54C278.83 1024.55 276.487 1026.48 276.5 1028.39C276.513 1030.31 278.744 1033.27 281.629 1033.25Z" fill="#C9CAC2"/>
<path d="M94.9069 893.197C96.3069 890.759 100.61 889.376 102.561 890.496C104.512 891.616 110.016 894.362 108.616 896.801C105.474 901.447 100.795 901.347 98.8436 900.227C96.8926 899.107 93.5069 895.636 94.9069 893.197Z" fill="#C9CAC2"/>
<path d="M208.88 983.667C211.081 982.699 215.77 980.422 214.995 978.661C214.22 976.9 207.792 972.61 205.591 973.578C201.355 975.828 201.015 979.816 201.79 981.577C202.565 983.337 206.679 984.636 208.88 983.667Z" fill="#C9CAC2"/>
<path d="M223.344 959.801C225.167 961.369 228.99 964.914 227.736 966.372C226.481 967.831 219.082 970.063 217.259 968.495C213.862 965.109 214.698 961.195 215.952 959.736C217.206 958.278 221.52 958.234 223.344 959.801Z" fill="#C9CAC2"/>
<path d="M195.18 922.897C196.276 923.84 198.575 925.971 197.821 926.847C197.067 927.724 192.618 929.066 191.522 928.124C189.48 926.088 189.983 923.735 190.737 922.858C191.491 921.981 194.084 921.955 195.18 922.897Z" fill="#C9CAC2"/>
<path d="M207.342 917.201C208.438 918.144 210.736 920.275 209.982 921.152C209.228 922.029 204.78 923.37 203.684 922.428C201.642 920.392 202.144 918.039 202.898 917.162C203.652 916.285 206.246 916.259 207.342 917.201Z" fill="#C9CAC2"/>
<path d="M273.559 999.265C272.612 1000.08 271.158 1000.75 269.797 1001.04C269.122 1001.19 268.518 1001.23 268.05 1001.18C267.564 1001.12 267.35 1000.98 267.274 1000.89C267.103 1000.7 266.877 1000.27 266.684 999.639C266.498 999.027 266.365 998.296 266.328 997.548C266.251 995.996 266.593 994.677 267.33 994.023C271.633 990.733 274.911 991.929 275.647 992.782C275.736 992.885 275.865 993.168 275.882 993.73C275.899 994.263 275.812 994.925 275.619 995.632C275.227 997.069 274.46 998.487 273.559 999.265Z" stroke="#C9CAC2" stroke-width="1.87844"/>
<path d="M221.401 1012.49C220.153 1012.57 218.59 1012.23 217.327 1011.65C216.7 1011.36 216.193 1011.03 215.85 1010.7C215.495 1010.37 215.409 1010.13 215.401 1010.01C215.383 1009.75 215.458 1009.27 215.685 1008.65C215.904 1008.05 216.238 1007.39 216.658 1006.77C217.531 1005.48 218.597 1004.63 219.58 1004.56C224.997 1004.52 226.894 1007.44 226.97 1008.57C226.979 1008.7 226.911 1009.01 226.587 1009.47C226.28 1009.9 225.812 1010.38 225.232 1010.83C224.054 1011.74 222.588 1012.41 221.401 1012.49Z" stroke="#C9CAC2" stroke-width="1.87844"/>
<path d="M301.218 1006.45C302.957 1006.88 304.638 1007.03 305.761 1006.97C307.837 1006.63 309.113 1005.5 310.154 1004.58C310.27 1004.48 310.383 1004.37 310.494 1004.28C309.065 1003.44 306.754 1002.45 304.38 1002C301.899 1001.54 299.402 1002.39 296.781 1003.57C296.522 1003.68 296.385 1003.89 296.35 1004.05C296.333 1004.13 296.339 1004.19 296.356 1004.24C296.371 1004.28 296.404 1004.34 296.489 1004.4C297.721 1005.34 299.451 1006.03 301.218 1006.45Z" stroke="#C9CAC2" stroke-width="1.87844"/>
<path d="M152.169 917.901C153.618 916.851 154.825 915.671 155.509 914.778C156.604 912.983 156.571 911.277 156.545 909.886C156.542 909.731 156.539 909.58 156.538 909.433C154.973 909.977 152.719 911.09 150.837 912.605C148.871 914.189 147.898 916.641 147.091 919.399C147.012 919.672 147.078 919.908 147.178 920.04C147.226 920.104 147.278 920.14 147.325 920.158C147.368 920.175 147.435 920.188 147.54 920.165C149.054 919.838 150.696 918.967 152.169 917.901Z" stroke="#C9CAC2" stroke-width="1.87844"/>
<path d="M176.851 934.721C177.895 935.858 179.015 936.771 179.842 937.273C181.514 938.055 183.011 937.862 184.243 937.703C184.325 937.692 184.407 937.681 184.487 937.671C183.841 936.352 182.667 934.54 181.196 933.075C179.671 931.556 177.514 930.924 175.076 930.48C174.798 930.429 174.577 930.521 174.465 930.629C174.411 930.68 174.386 930.73 174.376 930.771C174.367 930.809 174.361 930.872 174.398 930.971C174.866 932.242 175.789 933.564 176.851 934.721Z" stroke="#C9CAC2" stroke-width="1.87844"/>
<path d="M94.4862 915.949C96.0353 916.844 97.6055 917.464 98.6996 917.725C100.785 917.992 102.329 917.266 103.588 916.675C103.729 916.609 103.866 916.545 103.999 916.484C102.865 915.277 100.929 913.673 98.7778 912.573C96.53 911.423 93.8943 911.535 91.047 911.924C90.7656 911.962 90.5769 912.119 90.4968 912.265C90.4584 912.335 90.4469 912.396 90.4494 912.447C90.4516 912.493 90.4669 912.56 90.5301 912.646C91.4465 913.895 92.9122 915.039 94.4862 915.949Z" stroke="#C9CAC2" stroke-width="1.87844"/>
<path d="M270.01 960.591C270.403 960.68 270.755 960.76 271.055 960.831C272.625 961.051 275.48 961.208 278.353 961.335C279.288 961.376 280.224 961.414 281.111 961.45C281.835 961.48 282.526 961.508 283.159 961.535C282.143 960.934 280.921 960.258 279.658 959.58C278.004 958.691 276.327 957.825 275.024 957.152C274.533 956.898 274.095 956.672 273.732 956.483C273.226 956.219 272.41 956.013 271.319 955.885C270.249 955.761 268.995 955.72 267.665 955.738C265.007 955.775 262.124 956.046 259.96 956.305C259.672 956.339 259.522 956.492 259.482 956.572C259.473 956.59 259.471 956.6 259.47 956.605C259.474 956.615 259.49 956.645 259.542 956.691C260.788 957.803 262.993 958.701 265.322 959.402C267.057 959.924 268.746 960.306 270.01 960.591ZM259.47 956.608C259.47 956.608 259.47 956.607 259.47 956.606C259.47 956.607 259.47 956.608 259.47 956.608ZM259.469 956.601C259.469 956.601 259.469 956.602 259.47 956.604C259.47 956.602 259.469 956.601 259.469 956.601Z" stroke="#C9CAC2" stroke-width="1.87844"/>
<path d="M193.649 817.327C194.015 817.495 194.343 817.646 194.622 817.778C196.113 818.317 198.873 819.061 201.659 819.779C202.565 820.013 203.472 820.243 204.333 820.462C205.035 820.64 205.706 820.811 206.319 820.969C205.449 820.17 204.394 819.256 203.298 818.331C201.863 817.12 200.401 815.926 199.266 814.998C198.838 814.649 198.456 814.337 198.14 814.077C197.699 813.714 196.944 813.343 195.903 812.993C194.882 812.65 193.663 812.351 192.358 812.094C189.75 811.581 186.873 811.25 184.702 811.055C184.413 811.03 184.236 811.148 184.18 811.218C184.167 811.234 184.163 811.244 184.161 811.248C184.163 811.259 184.172 811.291 184.213 811.347C185.202 812.692 187.175 814.027 189.308 815.194C190.898 816.064 192.471 816.786 193.649 817.327ZM184.161 811.251C184.161 811.251 184.161 811.25 184.161 811.249C184.161 811.25 184.161 811.251 184.161 811.251ZM184.161 811.244C184.161 811.244 184.161 811.245 184.161 811.247C184.161 811.245 184.161 811.244 184.161 811.244Z" stroke="#C9CAC2" stroke-width="1.87844"/>
<path d="M242.785 844.599C242.829 845.843 242.863 847.022 242.859 848.063C244.287 846.034 246.063 843.058 246.974 841.084C247.567 839.799 247.828 837.643 247.48 835.136C247.136 832.654 246.208 829.934 244.548 827.549C244.449 827.406 244.318 827.334 244.236 827.317C244.215 827.313 244.203 827.313 244.197 827.313C244.195 827.315 244.191 827.318 244.186 827.324C243.579 828.005 243.128 829.335 242.862 831.254C242.603 833.126 242.543 835.375 242.569 837.716C242.589 839.505 242.659 841.32 242.726 843.041C242.746 843.57 242.766 844.091 242.785 844.599ZM244.2 827.311C244.2 827.311 244.2 827.311 244.199 827.311C244.2 827.311 244.2 827.311 244.2 827.311Z" stroke="#C9CAC2" stroke-width="1.87844"/>
<path d="M169.064 862.824C169.832 863.721 170.556 864.579 171.174 865.359C171.026 862.96 170.581 859.68 170.086 857.654C169.762 856.329 168.662 854.541 166.89 852.852C165.136 851.179 162.797 849.676 160.105 848.865C159.94 848.815 159.794 848.841 159.722 848.877C159.708 848.884 159.699 848.89 159.694 848.894C159.694 848.897 159.694 848.9 159.693 848.905C159.655 849.788 160.121 851.067 161.08 852.681C162.016 854.254 163.325 855.991 164.755 857.746C165.85 859.09 166.998 860.424 168.087 861.688C168.419 862.074 168.746 862.453 169.064 862.824Z" stroke="#C9CAC2" stroke-width="1.87844"/>
<path d="M370.866 897.306C381.279 910.733 396.712 931.004 402.313 959.295M402.313 959.295C400.44 954.286 392.562 940.604 376.031 925.952M402.313 959.295C404.737 971.537 405.319 985.28 402.856 1000.62M402.856 1000.62C401.257 1010.58 398.374 1021.22 393.877 1032.55V1037.25C387.453 1036.81 373.651 1036.21 366.639 1037.05M402.856 1000.62C403.933 996.864 401.672 983.996 384.015 962.582C366.357 941.168 365.7 934.405 364.761 930.179M285.866 1027.86C292.91 1034.9 296.197 1033.49 309.816 1038.66C314.384 1040.39 321.225 1040.96 328.601 1040.9M366.639 1037.05C366.132 1037.11 365.661 1037.17 365.23 1037.25C359.925 1038.19 343.213 1040.78 328.601 1040.9M366.639 1037.05C360.507 1035.66 349 1032.25 341.95 1027.86M309.816 1003.91C315.39 1006.94 325.953 1013.27 332.533 1018.94M341.95 1027.86C339.821 1026.53 338.099 1025.11 337.054 1023.63C336.035 1022.19 334.453 1020.59 332.533 1018.94M341.95 1027.86C334.839 1028.64 319.772 1029.27 316.391 1025.51C313.01 1021.75 305.59 1018.31 302.302 1017.06M328.601 1040.9C323.122 1045.16 306.529 1050.68 283.988 1038.66M332.533 1018.94C333.883 1017.37 333.485 1011.89 321.087 1002.5" stroke="#C9CAC2" stroke-width="1.87844" stroke-linejoin="round"/>
<path d="M183.666 937.674C190.889 942.866 193.582 941.151 206.327 943.739C210.603 944.608 216.712 944.124 223.203 943.007C236.061 940.795 250.413 936.099 254.953 934.509C255.321 934.38 255.727 934.253 256.165 934.126M256.165 934.126C262.223 932.38 274.472 930.92 280.195 930.38C288.57 929.589 290.696 929.841 312.164 943.739M256.165 934.126C250.561 933.785 239.931 932.447 233.085 929.589M208.177 920.858C213.525 922.724 216.886 919.039 223.501 923.085M233.085 929.589C231.018 928.727 229.296 927.725 228.162 926.571C227.056 925.446 225.432 924.266 223.501 923.085M233.085 929.589C226.932 931.304 213.746 934.028 210.225 931.205C206.704 928.382 199.669 926.417 196.592 925.788M223.501 923.085C224.465 921.511 223.324 916.74 211.046 910.252" stroke="#C9CAC2" stroke-width="1.87844" stroke-linejoin="round"/>
<path d="M353.531 978.661C348.619 973.749 333.178 965.271 309.387 968.648M305.63 969.269C306.905 969.029 308.157 968.822 309.387 968.648M305.63 969.269C301.404 973.652 292.011 982.982 288.255 985.236C284.498 987.49 278.236 991.184 275.575 992.749M305.63 969.269C299.319 970.458 293.51 972.265 288.255 974.421M227.675 1008.25C231.807 1009.37 248.807 1000.89 256.791 996.506C260.935 991.177 271.925 981.118 288.255 974.421M309.387 968.648C308.761 967.603 306.288 965.23 301.404 964.103C295.299 962.694 286.846 964.103 282.15 960.816M288.255 974.421C283.549 976.841 277.144 979.614 269.94 981.986M214.056 979.6C226.914 990.693 248.386 988.445 266.183 983.162M269.94 981.986C268.709 982.391 267.455 982.784 266.183 983.162M269.94 981.986L266.183 983.162M266.183 983.162C262.113 983.687 251.531 980.796 241.763 972.542C231.995 964.288 225.796 964.416 223.918 965.512" stroke="#C9CAC2" stroke-width="1.87844" stroke-linejoin="round"/>
<path d="M192.413 882.333C196.17 882.333 195.41 881.429 196.64 881.254C196.348 880.766 191.463 879.783 185.839 878.758M192.413 882.333C187.717 890.317 177.855 894.269 168.463 897.831C164.367 899.384 158.445 908.475 155.784 910.04M192.413 882.333C185.991 882.333 170.672 880.91 163.767 883.742M102.718 916.615C133.242 926.007 145.349 891.296 163.767 883.742M150.148 872.472C154.845 875.759 163.298 874.35 169.402 875.759C172.008 876.36 179.407 877.586 185.839 878.758M163.767 883.742C152.966 886.56 145.142 886.574 137.939 888.945M137.939 888.945C136.708 889.35 135.454 889.743 134.182 890.121M137.939 888.945L134.182 890.121M134.182 890.121C123.103 893.41 113.693 896.447 105.066 895.595M134.182 890.121C131.883 890.418 128.886 887.152 124.091 883.742M185.839 878.758C182.395 877.915 174.568 871.532 170.811 864.019" stroke="#C9CAC2" stroke-width="1.87844" stroke-linejoin="round"/>
<path d="M272.829 863.302C274.855 864.597 279.141 867.566 278.105 869.187C277.069 870.808 270.059 874.062 268.033 872.768C264.191 869.895 264.467 865.902 265.502 864.281C266.538 862.66 270.803 862.008 272.829 863.302Z" fill="#C9CAC2"/>
<path d="M292.05 909.812C291.207 908.886 290.504 907.45 290.176 906.097C290.014 905.425 289.956 904.823 289.997 904.353C290.039 903.866 290.174 903.649 290.259 903.571C290.453 903.394 290.871 903.158 291.499 902.949C292.106 902.747 292.833 902.595 293.58 902.539C295.129 902.422 296.457 902.73 297.13 903.45C300.529 907.667 299.417 910.974 298.584 911.732C298.483 911.824 298.203 911.96 297.642 911.992C297.109 912.023 296.446 911.952 295.734 911.777C294.287 911.423 292.85 910.692 292.05 909.812Z" stroke="#C9CAC2" stroke-width="1.87844"/>
<path d="M291.504 860.854C290.356 860.357 289.123 859.338 288.268 858.24C287.843 857.695 287.542 857.17 287.386 856.725C287.224 856.263 287.257 856.01 287.303 855.904C287.408 855.663 287.691 855.276 288.177 854.826C288.647 854.392 289.247 853.955 289.904 853.596C291.268 852.852 292.605 852.585 293.515 852.965C298.349 855.408 298.697 858.88 298.25 859.914C298.196 860.039 297.997 860.278 297.499 860.538C297.026 860.785 296.392 860.994 295.672 861.128C294.207 861.401 292.596 861.326 291.504 860.854Z" stroke="#C9CAC2" stroke-width="1.87844"/>
<path d="M144.047 874.003C142.898 873.506 141.665 872.487 140.81 871.389C140.385 870.844 140.085 870.319 139.928 869.874C139.766 869.412 139.799 869.159 139.845 869.053C139.95 868.812 140.233 868.424 140.719 867.975C141.189 867.541 141.789 867.104 142.446 866.745C143.81 866.001 145.147 865.734 146.057 866.114C150.891 868.557 151.239 872.028 150.792 873.063C150.738 873.188 150.539 873.427 150.041 873.687C149.568 873.934 148.934 874.143 148.214 874.277C146.749 874.55 145.138 874.475 144.047 874.003Z" stroke="#C9CAC2" stroke-width="1.87844"/>
<path d="M116.809 884.335C115.661 883.838 114.428 882.818 113.573 881.72C113.148 881.175 112.847 880.65 112.691 880.206C112.529 879.744 112.562 879.49 112.608 879.384C112.712 879.143 112.996 878.756 113.482 878.307C113.951 877.873 114.552 877.435 115.209 877.076C116.573 876.332 117.909 876.066 118.819 876.445C123.653 878.889 124.002 882.36 123.555 883.394C123.5 883.52 123.301 883.758 122.803 884.019C122.33 884.266 121.697 884.475 120.976 884.609C119.512 884.881 117.901 884.807 116.809 884.335Z" stroke="#C9CAC2" stroke-width="1.87844"/>
<path d="M180.785 819.159C182.812 820.453 187.097 823.423 186.061 825.044C185.025 826.665 178.015 829.919 175.989 828.624C172.148 825.751 172.423 821.759 173.459 820.138C174.494 818.516 178.759 817.864 180.785 819.159Z" fill="#C9CAC2"/>
<path d="M330.697 945.731C326.207 941.618 320.294 942.171 312.164 926.946C310.101 923.081 300.179 914.539 298.545 911.919M330.697 945.731C332.146 952.462 330.831 957.471 330.831 957.471M330.697 945.731C329.682 941.012 327.391 933.836 325.344 928.355M276.474 868.245C307.938 888.908 319.472 914.599 323.447 923.623C324.016 924.915 324.666 926.542 325.344 928.355M298.545 859.322C314.512 868.245 319.696 902.057 319.696 915.676M325.344 928.355C325.334 923.476 330.415 911.606 328.161 902.057C325.344 890.121 324.367 874.819 326.264 870.593" stroke="#C9CAC2" stroke-width="1.87844" stroke-linejoin="round"/>
<path d="M200.112 866.49C199.014 865.89 197.88 864.761 197.129 863.59C196.757 863.008 196.505 862.457 196.391 862C196.271 861.526 196.328 861.276 196.384 861.175C196.509 860.944 196.827 860.585 197.352 860.182C197.86 859.793 198.498 859.413 199.186 859.116C200.612 858.5 201.967 858.358 202.838 858.819C207.428 861.696 207.456 865.185 206.916 866.174C206.85 866.293 206.63 866.513 206.11 866.726C205.616 866.929 204.966 867.079 204.237 867.146C202.753 867.283 201.156 867.061 200.112 866.49Z" stroke="#C9CAC2" stroke-width="1.87844"/>
<path d="M205.538 909.734C204.575 909.208 203.574 908.213 202.911 907.178C202.582 906.664 202.363 906.183 202.264 905.789C202.161 905.376 202.216 905.183 202.248 905.124C202.351 904.936 202.622 904.625 203.086 904.27C203.533 903.927 204.096 903.592 204.702 903.33C205.966 902.784 207.137 902.672 207.873 903.06C211.941 905.611 211.923 908.672 211.476 909.491C211.433 909.568 211.262 909.752 210.806 909.94C210.377 910.116 209.807 910.248 209.163 910.307C207.85 910.428 206.446 910.23 205.538 909.734Z" stroke="#C9CAC2" stroke-width="1.87844"/>
<path d="M215.427 806.379C214.279 805.882 213.046 804.863 212.191 803.765C211.766 803.22 211.465 802.695 211.309 802.25C211.147 801.788 211.18 801.535 211.226 801.429C211.331 801.188 211.614 800.8 212.1 800.351C212.57 799.917 213.17 799.48 213.827 799.121C215.191 798.376 216.528 798.11 217.438 798.49C222.272 800.933 222.62 804.404 222.173 805.439C222.119 805.564 221.92 805.803 221.422 806.063C220.949 806.31 220.315 806.519 219.595 806.653C218.13 806.925 216.519 806.851 215.427 806.379Z" stroke="#C9CAC2" stroke-width="1.87844"/>
<path d="M329.045 861.206C328.273 863.183 327.165 867.092 326.255 870.299C326.087 870.891 325.926 871.46 325.775 871.987C325.756 872.053 325.75 872.105 325.75 872.144C325.758 872.138 325.766 872.13 325.774 872.122C328.057 869.943 331.169 866.534 332.658 864.815C333.032 864.383 333.421 863.637 333.796 862.605C334.165 861.593 334.494 860.381 334.783 859.084C335.361 856.489 335.763 853.622 336.011 851.456C336.044 851.168 335.93 850.987 335.862 850.93C335.847 850.917 335.837 850.912 335.832 850.91C335.822 850.912 335.789 850.92 335.732 850.96C334.363 851.915 332.979 853.854 331.76 855.958C330.851 857.525 330.09 859.08 329.52 860.244C329.343 860.606 329.184 860.931 329.045 861.206ZM335.83 850.91C335.83 850.91 335.83 850.91 335.831 850.91C335.83 850.91 335.83 850.91 335.83 850.91ZM335.836 850.91C335.836 850.91 335.835 850.91 335.833 850.91C335.835 850.91 335.836 850.91 335.836 850.91Z" stroke="#C9CAC2" stroke-width="1.87844"/>
<path d="M251.115 896.422C217.303 879.516 219.181 868.245 206.502 864.019M251.115 896.422C257.511 906.754 273.186 916.146 273.186 916.146M251.115 896.422C246.603 889.135 240.652 885.097 237.026 881.273M184.43 824.102C215.894 844.765 226.007 857.344 229.982 866.367M229.982 866.367C230.551 867.659 233.543 875.355 234.22 877.168M229.982 866.367C229.982 864.349 230.147 861.786 230.376 858.853M221.529 805.317C235.131 812.918 231.693 841.988 230.376 858.853M234.22 877.168C232.8 853.218 238.905 863.549 243.131 846.643M234.22 877.168C234.755 878.599 235.746 879.923 237.026 881.273M230.376 858.853C228.679 851.026 224.347 834.339 220.59 830.207C216.833 826.074 208.38 820.971 204.623 820.345M237.026 881.273C232.33 871.922 214.015 851.903 200.866 846.643C184.43 840.068 172.69 847.582 163.298 837.251" stroke="#C9CAC2" stroke-width="1.87844" stroke-linejoin="round"/>
<path d="M401.838 323.591C402.106 328.438 399.18 332.541 395.303 332.756C391.425 332.97 386.309 329.312 386.041 324.465C385.773 319.619 388.698 315.515 392.576 315.301C396.453 315.086 401.569 318.744 401.838 323.591Z" fill="#C9CAC2"/>
<path d="M378.456 331.9C378.668 335.725 377.416 340.22 374.356 340.389C371.296 340.558 366.202 336.415 365.99 332.59C365.779 328.765 368.088 325.527 371.147 325.358C374.207 325.188 378.244 328.075 378.456 331.9Z" fill="#C9CAC2"/>
<path d="M455.412 564.73C455.143 569.577 458.069 573.68 461.947 573.894C465.824 574.109 470.94 570.451 471.209 565.604C471.477 560.757 468.551 556.654 464.674 556.439C460.796 556.225 455.68 559.883 455.412 564.73Z" fill="#C9CAC2"/>
<path d="M472.302 612.519C472.509 615.041 474.526 618.588 476.691 618.41C478.857 618.232 482.37 614.359 482.163 611.837C481.956 609.315 479.633 607.433 477.467 607.611C475.302 607.789 472.095 609.997 472.302 612.519Z" fill="#C9CAC2"/>
<path d="M236.087 235.679C236.356 240.526 233.39 245.327 229.513 245.541C225.635 245.756 218.98 241.935 218.712 237.088C218.443 232.241 221.878 226.502 225.756 226.287C229.633 226.073 235.819 230.832 236.087 235.679Z" fill="#C9CAC2"/>
<path d="M480.285 589.949C478.065 591.866 473.366 592.48 471.832 590.705C470.298 588.929 468.673 582.962 470.892 581.045C475.589 577.556 480.16 579.269 481.694 581.044C483.228 582.82 482.504 588.032 480.285 589.949Z" fill="#C9CAC2"/>
<path d="M449.717 592.719C451.537 594.291 455.39 594.794 456.647 593.339C457.905 591.883 459.237 586.99 457.418 585.418C453.567 582.558 449.819 583.962 448.562 585.418C447.304 586.874 447.897 591.147 449.717 592.719Z" fill="#C9CAC2"/>
<path d="M494.96 619.517C493.251 620.994 489.632 621.467 488.451 620.099C487.269 618.732 486.018 614.137 487.727 612.66C491.344 609.973 494.864 611.292 496.045 612.66C497.226 614.027 496.669 618.041 494.96 619.517Z" fill="#C9CAC2"/>
<path d="M459.901 621.23C457.221 623.545 451.143 622.435 449.291 620.291C447.438 618.147 448.02 613.2 450.699 610.884C453.379 608.569 458.049 608.74 459.901 610.884C461.753 613.028 462.581 618.915 459.901 621.23Z" fill="#C9CAC2"/>
<path d="M316.395 561.127C321.179 560.308 324.188 562.458 324.844 566.286C325.246 568.634 329.948 566.836 332.827 567.694C336.244 568.713 338.999 570.006 338.932 570.512C338.858 571.074 337.993 575.208 334.236 572.39C329.54 570.512 329.54 569.103 324.374 571.921C322.026 573.202 321.462 575.372 319.067 575.782C314.282 576.602 312.35 573.4 311.695 569.573C311.039 565.745 311.61 561.947 316.395 561.127Z" fill="#C9CAC2"/>
<path d="M281.332 423.712C283.412 426.929 284.553 431.453 281.98 433.117C279.407 434.781 272.929 433.709 270.848 430.492C268.768 427.276 269.168 423.319 271.741 421.655C274.314 419.99 279.251 420.495 281.332 423.712Z" fill="#C9CAC2"/>
<path d="M197.151 214.252C197.275 216.489 197.005 219.187 196.17 221.121C195.859 223 196.031 227.486 193.683 226.547C191.805 225.795 190.588 226.456 188.955 226.547C184.121 226.814 175.824 222.051 175.489 216.008C175.155 209.966 179.437 202.81 184.271 202.543C189.105 202.275 196.817 208.209 197.151 214.252Z" fill="#C9CAC2"/>
<path d="M195.701 247.768C195.958 252.424 194.332 256.967 188.657 257.281C184.932 257.487 179.519 252.424 179.261 247.768C179.004 243.111 181.814 239.17 185.539 238.964C189.264 238.757 195.443 243.111 195.701 247.768Z" fill="#C9CAC2"/>
</g>
<defs>
<linearGradient id="paint0_linear_151_1592" x1="350.913" y1="1762.85" x2="350.913" y2="2036.68" gradientUnits="userSpaceOnUse">
<stop stop-color="#C9CAC2"/>
<stop offset="1" stop-color="#C9CAC2" stop-opacity="0"/>
</linearGradient>
<linearGradient id="paint1_linear_151_1592" x1="343.042" y1="1681.61" x2="343.042" y2="2038.52" gradientUnits="userSpaceOnUse">
<stop stop-color="#C9CAC2"/>
<stop offset="1" stop-color="#C9CAC2" stop-opacity="0"/>
</linearGradient>
<clipPath id="clip0_151_1592">
<rect width="544" height="2018" fill="white"/>
</clipPath>
</defs>
</svg>
