<svg width="176" height="133" viewBox="0 0 176 133" fill="none" xmlns="http://www.w3.org/2000/svg">
<path d="M166.024 62.1974C166.25 61.8207 167.074 64.0076 167.37 64.9523C169.543 71.8857 169.87 77.6857 170 84.0001C170.016 84.7941 170 85.5001 170 86.5001C170 86.7236 170 132.5 170 132.5L169 132.5C169 132.5 169 86.3028 169 86.0001C169 80.7715 168.596 76.1398 167.908 71.5001C167.692 70.0454 167.37 67.5001 166.024 62.1974Z" fill="url(#paint0_linear_130_1485)"/>
<path d="M151.489 15.9259C151.664 16.0283 151.595 16.3012 151.393 16.3068C148.287 16.3925 142.404 16.7422 134.379 12.0726C134.379 12.0726 135.976 11.976 136.504 12.0072C142.34 12.3516 144.408 11.7795 151.489 15.9259Z" fill="#CCCBC3"/>
<path d="M149.126 43.6534C148.439 40.9098 146.336 34.3785 145.435 33.2793C144.158 31.721 141.651 28.4892 140.123 27.164C139.299 26.4487 137.904 25.2348 139.173 27.1929C141.498 30.7818 140.377 34.91 142.692 36.8814C145.008 38.8528 148.384 43.3328 149.126 43.6534Z" fill="#CCCBC3"/>
<path d="M128.454 26.5967C127.492 22.7555 124.05 18.7093 122.448 17.1664C121.877 16.8236 121.059 16.5666 122.363 18.2811C123.993 20.4243 124.423 23.5969 125.453 27.7125C126.195 30.6733 128.748 33.0233 130.294 34.0899C130.45 34.1973 130.643 34.0421 130.58 33.8635C130.124 32.5483 129.281 29.8976 128.454 26.5967Z" fill="#CCCBC3"/>
<path d="M161.855 56.649C161.679 55.5373 161.877 53.8848 160.961 50.1666C159.674 46.4798 155.384 40.9933 153.909 37.3061L152.842 37.3037C154.527 40.4791 154.1 46.053 156.502 49.8251C158.592 53.1071 160.067 55.6893 161.53 56.8714C161.677 56.99 161.885 56.8353 161.855 56.649Z" fill="#CCCBC3"/>
<path d="M169.26 46.0471C163.399 43.1819 163.186 38.6751 158.172 34.782L158.555 34.7322C159.035 35.0198 159.584 35.9323 161.986 36.789C164.387 37.6456 166.478 38.2773 169.619 42.5314C171.871 45.6936 174.043 47.5366 174.66 49.2388C174.724 49.4162 174.528 49.5266 174.393 49.3945C173.637 48.6532 172.683 47.7204 169.26 46.0471Z" fill="#CCCBC3"/>
<path d="M158.99 29.2486C159.86 30.0699 157.377 29.4595 156.961 29.3139C151.759 27.4945 148.605 27.0184 142.779 22.7685C142.159 22.3641 141.48 22.0769 140.815 21.7648C140.629 21.6776 140.488 21.5166 140.296 21.438C139.412 21.0746 140.644 20.6697 141.229 20.847C146.117 21.4456 152.06 23.2277 156.594 27.3579C157.103 27.8208 158.49 28.7766 158.99 29.2486Z" fill="#CCCBC3"/>
<path d="M162.866 45.282C162.691 44.0924 163.922 45.3626 164.216 45.7045C168.336 50.5066 171.339 55.2218 171.084 61.4815C171.044 62.4627 165.35 55.2477 164.733 50.6782C164.398 48.1986 163.743 47.4847 163.275 46.3066C163.144 45.9778 162.937 45.7643 162.866 45.282Z" fill="#CCCBC3"/>
<path fill-rule="evenodd" clip-rule="evenodd" d="M152.739 34.6971C157.167 38.7644 160.859 42.7878 163.559 46.4327L164.363 45.8373C161.339 41.7563 157.114 37.234 152.039 32.7157C154.451 33.3121 158.167 34.7472 161.398 37.593L162.059 36.8426C157.8 33.0919 152.747 31.6814 150.555 31.4156C146.283 27.7321 141.462 24.0753 136.281 20.6873C137.978 21.0408 139.856 21.4589 140.826 21.754L141.117 20.7972C139.536 20.3167 135.734 19.5427 133.956 19.2005C129.631 16.4965 125.08 13.9955 120.408 11.8315C126.671 12.5917 132.742 13.001 136.236 13.1163L136.269 12.1168C132.181 11.982 124.515 11.44 117.179 10.399C116.689 10.1911 116.198 9.98723 115.706 9.78745C106.229 5.94028 96.3818 3.72246 86.9999 3.99988L10.4999 3.99988L10.4999 4.99987L86.9999 4.99988C96.1797 4.72297 105.862 6.88143 115.24 10.6775C116.221 11.6306 117.742 13.1589 119.2 14.7288C120.701 16.3457 122.106 17.9751 122.799 19.0636L123.642 18.5264C122.894 17.3516 121.431 15.6614 119.933 14.0483C119.175 13.2322 118.401 12.4277 117.692 11.7077C123.155 14.0849 128.481 16.9521 133.505 20.0977C133.767 20.2618 134.028 20.4266 134.289 20.5922C135.252 21.6832 136.697 23.6685 137.964 25.6018C138.605 26.581 139.195 27.5384 139.649 28.3495C140.112 29.1782 140.405 29.805 140.49 30.1435L141.46 29.9006C141.338 29.4159 140.98 28.6811 140.522 27.8613C140.053 27.0238 139.45 26.0456 138.8 25.0538C138.186 24.1163 137.525 23.1589 136.892 22.2903C141.643 25.467 146.07 28.8604 150.018 32.2735C150.251 32.4747 150.482 32.676 150.712 32.8773C151.641 34.6484 153.517 38.5055 154.042 40.6002L155.012 40.3573C154.636 38.856 153.635 36.5682 152.739 34.6971Z" fill="url(#paint1_linear_130_1485)"/>
<defs>
<linearGradient id="paint0_linear_130_1485" x1="164" y1="69.5001" x2="164" y2="123.5" gradientUnits="userSpaceOnUse">
<stop stop-color="#CCCBC3"/>
<stop offset="1" stop-color="#CCCBC3" stop-opacity="0"/>
</linearGradient>
<linearGradient id="paint1_linear_130_1485" x1="109" y1="-1.50012" x2="24.4999" y2="-2.00012" gradientUnits="userSpaceOnUse">
<stop stop-color="#CCCBC3"/>
<stop offset="1" stop-color="#CCCBC3" stop-opacity="0"/>
</linearGradient>
</defs>
</svg>
