<svg width="108" height="37" viewBox="0 0 108 37" fill="none" xmlns="http://www.w3.org/2000/svg">
<g opacity="0.8">
<path d="M21.548 19.3537C19.2041 18.0082 16.9496 16.6883 15.5537 15.4228C14.2943 14.0346 13.5175 12.9655 12.9728 12.1365C12.7389 11.7806 12.5476 11.4687 12.3751 11.1876C12.3447 11.138 12.3149 11.0894 12.2856 11.0417C12.2424 10.9716 12.1999 10.9028 12.1578 10.8355C12.8506 11.0612 13.6521 11.4297 14.5833 11.9155C15.4297 12.357 16.3563 12.8803 17.3823 13.4599C17.9081 13.7569 18.4601 14.0687 19.0408 14.3918C20.8979 15.425 22.3895 17.169 23.8252 18.9705C23.9792 19.1638 24.1329 19.3582 24.2866 19.5527C25.1911 20.697 26.0952 21.8409 27.0605 22.7398C25.6337 21.6968 23.7719 20.6291 21.9324 19.5742C21.8041 19.5006 21.6759 19.4271 21.548 19.3537Z" fill="#CCCBC3" stroke="#CCCBC3"/>
<path d="M20.5887 27.5349C20.8083 27.5009 21.018 27.474 21.2181 27.4531C20.1023 27.0181 19.1023 26.5202 18.1392 26.0406C17.8552 25.8992 17.5744 25.7594 17.2948 25.6233C15.1445 24.5763 13.0204 23.7183 9.88215 23.848C7.95506 23.9276 6.65691 23.8747 5.70677 23.7635C6.03477 23.906 6.39525 24.0517 6.78877 24.2062C6.99288 24.2863 7.20458 24.3684 7.42336 24.4532C8.58654 24.904 9.9498 25.4323 11.4353 26.1604C13.789 27.2649 15.4612 27.6946 16.8342 27.8105C18.1217 27.9192 19.1701 27.7558 20.3398 27.5736C20.4221 27.5607 20.5051 27.5478 20.5887 27.5349Z" fill="#CCCBC3" stroke="#CCCBC3"/>
<path d="M26.8884 33.2352C25.7326 32.9269 28.2062 32.2823 28.6419 32.2122C34.0829 31.3366 37.0829 30.2546 44.2302 31.2193C44.9676 31.2801 45.7014 31.2096 46.4349 31.1676C46.6396 31.1559 46.8407 31.2301 47.0463 31.2082C47.997 31.1071 47.1059 32.0496 46.5075 32.1718C41.9238 33.9715 35.849 35.2325 29.8951 33.758C29.2279 33.5928 27.5527 33.4124 26.8884 33.2352Z" fill="#CCCBC3"/>
<path d="M15.7467 21.0378C15.7464 21.0378 15.7461 21.0379 15.7458 21.0379L15.7467 21.0378ZM15.0439 20.9151C14.8799 20.8679 14.7313 20.8171 14.6396 20.782C9.04666 18.6405 4.49213 16.1297 1.76475 11.1971C1.79443 11.2073 1.82494 11.218 1.85627 11.2291C2.60064 11.4939 3.67775 11.9712 4.86129 12.5957C7.24911 13.8557 9.94879 15.6518 11.2352 17.4153C12.38 18.9845 13.2459 19.6032 13.985 20.1313C14.2288 20.3056 14.4589 20.47 14.6806 20.6554C14.7923 20.7487 14.9315 20.8408 15.0336 20.9083C15.0371 20.9106 15.0405 20.9129 15.0439 20.9151Z" stroke="#CCCBC3" stroke-linecap="round" stroke-linejoin="round"/>
<path fill-rule="evenodd" clip-rule="evenodd" d="M29.7928 25.4688C23.9627 23.999 18.8012 22.2173 14.6915 20.2969L14.2681 21.2028C18.8697 23.3531 24.7381 25.3195 31.3518 26.8782C28.9462 27.5017 24.9953 28.0078 20.7992 27.0427L20.575 28.0172C26.1054 29.2893 31.2213 28.1247 33.2756 27.3154C38.7858 28.5219 44.7657 29.444 50.9347 29.958C49.2741 30.4546 47.424 30.9803 46.4299 31.1828L46.6294 32.1627C48.2483 31.833 51.9608 30.7042 53.6872 30.1591C54.3285 30.1994 54.9714 30.2351 55.6156 30.2662C55.6156 30.2662 55.8924 29.2781 56.1156 29.2883C55.294 29.2516 54.4743 29.2071 53.6572 29.1552C53.3486 29.1356 53.0403 29.115 52.7325 29.0933C51.3657 28.5924 49.1502 27.534 47.1163 26.4363C46.0861 25.8804 45.1115 25.3191 44.3266 24.8217C43.5245 24.3135 42.9689 23.9014 42.7333 23.6441L41.9957 24.3193C42.3331 24.6879 42.9979 25.1636 43.7913 25.6664C44.6019 26.1801 45.598 26.7533 46.6414 27.3164C47.6277 27.8487 48.6643 28.3763 49.6343 28.839C43.9441 28.3061 38.4364 27.4281 33.3393 26.3055C33.0387 26.2393 32.7397 26.1723 32.4421 26.1044C30.7816 24.9892 27.296 22.4896 25.8379 20.8969L25.1003 21.5722C26.1455 22.7138 28.1147 24.2495 29.7928 25.4688Z" fill="#CCCBC3"/>
<path fill-rule="evenodd" clip-rule="evenodd" d="M48.1121 22.9421C48.1121 24.2626 49.0197 26.6279 51.4244 28.5517L50.7997 29.3325C48.2045 27.2563 47.1121 24.6216 47.1121 22.9421L48.1121 22.9421Z" fill="#CCCBC3"/>
<path d="M41.819 21.7655C42.4965 22.4429 42.4781 23.2782 42.1069 23.6494C41.8983 23.858 41.5086 24.0235 41.0623 24.0399C40.623 24.056 40.2107 23.925 39.9351 23.6494C39.2577 22.972 39.276 22.1366 39.6472 21.7655C39.8558 21.5568 40.2456 21.3913 40.6919 21.3749C41.1311 21.3588 41.5434 21.4898 41.819 21.7655Z" stroke="#CCCBC3"/>
<path d="M48.7544 22.0861C48.8057 22.8851 48.3291 23.566 47.6899 23.6071C47.0508 23.6481 46.2017 23.0523 46.1504 22.2533C46.0991 21.4543 46.5756 20.7734 47.2148 20.7323C47.854 20.6913 48.7031 21.2871 48.7544 22.0861Z" fill="#CCCBC3"/>
<path d="M86.452 19.3537C88.7959 18.0082 91.0504 16.6883 92.4463 15.4228C93.7057 14.0346 94.4825 12.9655 95.0272 12.1365C95.2611 11.7806 95.4524 11.4687 95.6249 11.1876C95.6553 11.138 95.6851 11.0894 95.7144 11.0417C95.7576 10.9716 95.8001 10.9028 95.8422 10.8355C95.1494 11.0612 94.3479 11.4297 93.4167 11.9155C92.5703 12.357 91.6437 12.8803 90.6177 13.4599C90.0919 13.7569 89.5399 14.0687 88.9592 14.3918C87.1021 15.425 85.6105 17.169 84.1748 18.9705C84.0208 19.1638 83.8671 19.3582 83.7134 19.5527C82.8089 20.697 81.9048 21.8409 80.9395 22.7398C82.3663 21.6968 84.2281 20.6291 86.0676 19.5742C86.1959 19.5006 86.3241 19.4271 86.452 19.3537Z" fill="#CCCBC3" stroke="#CCCBC3"/>
<path d="M87.4113 27.5349C87.1917 27.5009 86.982 27.474 86.7819 27.4531C87.8977 27.0181 88.8977 26.5202 89.8608 26.0406C90.1448 25.8992 90.4256 25.7594 90.7052 25.6233C92.8555 24.5763 94.9796 23.7183 98.1179 23.848C100.045 23.9276 101.343 23.8747 102.293 23.7635C101.965 23.906 101.605 24.0517 101.211 24.2062C101.007 24.2863 100.795 24.3684 100.577 24.4532C99.4135 24.904 98.0502 25.4323 96.5647 26.1604C94.211 27.2649 92.5388 27.6946 91.1658 27.8105C89.8783 27.9192 88.8299 27.7558 87.6602 27.5736C87.5779 27.5607 87.4949 27.5478 87.4113 27.5349Z" fill="#CCCBC3" stroke="#CCCBC3"/>
<path d="M81.1116 33.2352C82.2674 32.9269 79.7938 32.2823 79.3581 32.2122C73.9171 31.3366 70.9171 30.2546 63.7698 31.2193C63.0324 31.2801 62.2986 31.2096 61.5651 31.1676C61.3604 31.1559 61.1593 31.2301 60.9537 31.2082C60.003 31.1071 60.8941 32.0496 61.4925 32.1718C66.0762 33.9715 72.151 35.2325 78.1049 33.758C78.7721 33.5928 80.4473 33.4124 81.1116 33.2352Z" fill="#CCCBC3"/>
<path d="M92.2533 21.0378C92.2536 21.0378 92.2539 21.0379 92.2542 21.0379L92.2533 21.0378ZM92.9561 20.9151C93.1201 20.8679 93.2687 20.8171 93.3604 20.782C98.9533 18.6405 103.508 16.1297 106.235 11.1971C106.206 11.2073 106.175 11.218 106.144 11.2291C105.399 11.4939 104.322 11.9712 103.139 12.5957C100.751 13.8557 98.0512 15.6518 96.7648 17.4153C95.62 18.9845 94.7541 19.6032 94.015 20.1313C93.7712 20.3056 93.5411 20.47 93.3194 20.6554C93.2077 20.7487 93.0685 20.8408 92.9664 20.9083C92.9629 20.9106 92.9595 20.9129 92.9561 20.9151Z" stroke="#CCCBC3" stroke-linecap="round" stroke-linejoin="round"/>
<path fill-rule="evenodd" clip-rule="evenodd" d="M78.2072 25.4688C84.0373 23.999 89.1988 22.2173 93.3085 20.2969L93.7319 21.2028C89.1303 23.3531 83.2619 25.3195 76.6482 26.8782C79.0538 27.5017 83.0047 28.0078 87.2008 27.0427L87.425 28.0172C81.8946 29.2893 76.7787 28.1247 74.7244 27.3154C69.2142 28.5219 63.2343 29.444 57.0653 29.958C58.7259 30.4546 60.576 30.9803 61.5701 31.1828L61.3706 32.1627C59.7517 31.833 56.0392 30.7042 54.3128 30.1591C53.7483 30.1945 53.1824 30.2265 52.6156 30.2548L50.6156 29.3389C51.8623 29.2953 53.1055 29.2338 54.3428 29.1552C54.6514 29.1356 54.9597 29.115 55.2675 29.0933C56.6343 28.5924 58.8498 27.534 60.8837 26.4363C61.9139 25.8804 62.8885 25.3191 63.6734 24.8217C64.4755 24.3135 65.0311 23.9014 65.2667 23.6441L66.0043 24.3193C65.6669 24.6879 65.0021 25.1636 64.2087 25.6664C63.3981 26.1801 62.402 26.7533 61.3586 27.3164C60.3723 27.8487 59.3357 28.3763 58.3657 28.839C64.0559 28.3061 69.5636 27.4281 74.6607 26.3055C74.9613 26.2393 75.2603 26.1723 75.5579 26.1044C77.2184 24.9892 80.704 22.4896 82.1621 20.8969L82.8997 21.5722C81.8545 22.7138 79.8853 24.2495 78.2072 25.4688Z" fill="#CCCBC3"/>
<path fill-rule="evenodd" clip-rule="evenodd" d="M59.8879 22.9421C59.8879 24.2626 58.9803 26.6279 56.5756 28.5517L57.2003 29.3325C59.7955 27.2563 60.8879 24.6216 60.8879 22.9421L59.8879 22.9421Z" fill="#CCCBC3"/>
<path d="M66.181 21.7655C65.5035 22.4429 65.5219 23.2782 65.8931 23.6494C66.1017 23.858 66.4914 24.0235 66.9377 24.0399C67.377 24.056 67.7893 23.925 68.0649 23.6494C68.7423 22.972 68.724 22.1366 68.3528 21.7655C68.1442 21.5568 67.7544 21.3913 67.3081 21.3749C66.8689 21.3588 66.4566 21.4898 66.181 21.7655Z" stroke="#CCCBC3"/>
<path d="M59.2456 22.0861C59.1943 22.8851 59.6709 23.566 60.3101 23.6071C60.9492 23.6481 61.7983 23.0523 61.8496 22.2533C61.9009 21.4543 61.4244 20.7734 60.7852 20.7323C60.146 20.6913 59.2969 21.2871 59.2456 22.0861Z" fill="#CCCBC3"/>
<path d="M54 5.59463L53.3292 5.93002L54 7.27182L54.6708 5.93002L54 5.59463ZM54 15.1946L53.9148 15.9397L54 15.9495L54.0852 15.9397L54 15.1946ZM47.75 7.19464C47.75 6.03433 48.0707 5.34119 48.464 4.93482C48.8602 4.52536 49.4194 4.31454 50.0734 4.2941C50.732 4.27352 51.4436 4.45027 52.0553 4.76682C52.6739 5.08703 53.1207 5.51296 53.3292 5.93002L54.6708 5.25925C54.2793 4.47619 53.5511 3.85203 52.7447 3.43468C51.9314 3.01368 50.968 2.76541 50.0266 2.79483C49.0806 2.8244 48.1148 3.13861 47.386 3.89171C46.6543 4.6479 46.25 5.75483 46.25 7.19464H47.75ZM54.0852 14.4494C53.6864 14.4039 53.0806 14.1421 52.3477 13.6366C51.6352 13.1451 50.875 12.4736 50.178 11.7129C49.4807 10.9519 48.8633 10.1195 48.4242 9.31379C47.9787 8.49625 47.75 7.76665 47.75 7.19464H46.25C46.25 8.12251 46.6046 9.10952 47.1071 10.0315C47.6159 10.9653 48.3109 11.8955 49.072 12.7262C49.8333 13.5571 50.6773 14.3065 51.496 14.8713C52.2944 15.422 53.1469 15.852 53.9148 15.9397L54.0852 14.4494ZM54.0852 15.9397C54.8531 15.852 55.7056 15.422 56.504 14.8713C57.3227 14.3065 58.1667 13.5571 58.928 12.7262C59.6891 11.8955 60.3841 10.9653 60.8929 10.0315C61.3954 9.10952 61.75 8.12251 61.75 7.19464H60.25C60.25 7.76665 60.0213 8.49625 59.5758 9.31379C59.1367 10.1195 58.5193 10.9519 57.822 11.7129C57.125 12.4736 56.3648 13.1451 55.6523 13.6366C54.9194 14.1421 54.3136 14.4039 53.9148 14.4494L54.0852 15.9397ZM61.75 7.19464C61.75 5.75483 61.3457 4.6479 60.614 3.89171C59.8852 3.13861 58.9194 2.8244 57.9734 2.79483C57.032 2.76541 56.0686 3.01368 55.2553 3.43468C54.4489 3.85203 53.7207 4.47619 53.3292 5.25925L54.6708 5.93002C54.8793 5.51296 55.3261 5.08703 55.9447 4.76682C56.5564 4.45027 57.268 4.27352 57.9266 4.2941C58.5806 4.31454 59.1398 4.52536 59.536 4.93482C59.9293 5.34119 60.25 6.03433 60.25 7.19464H61.75Z" fill="#CCCBC3"/>
</g>
</svg>
