<svg width="16" height="16" viewBox="0 0 16 16" fill="none" xmlns="http://www.w3.org/2000/svg">
<path d="M7.98755 6.43443C7.3605 5.91189 6.84342 5.47881 6.4363 5.13521C6.0293 4.79173 5.70416 4.48982 5.46089 4.22948C5.21773 3.96925 5.0468 3.72883 4.9481 3.5082C4.8494 3.28757 4.80005 3.03983 4.80005 2.76497C4.80005 2.27007 4.96262 1.85221 5.28775 1.51139C5.61289 1.17046 6.03359 1 6.54987 1C6.84644 1 7.11374 1.06096 7.35179 1.18289C7.58984 1.30482 7.80176 1.49351 7.98755 1.74898C8.17334 1.49351 8.38816 1.30482 8.63202 1.18289C8.87587 1.06096 9.14399 1 9.43638 1C9.94522 1 10.3622 1.17046 10.6873 1.51139C11.0125 1.85221 11.175 2.27007 11.175 2.76497C11.175 3.03983 11.1286 3.28757 11.0357 3.5082C10.9428 3.72883 10.7737 3.96803 10.5283 4.22582C10.283 4.48361 9.95492 4.78262 9.5442 5.12285C9.13348 5.46308 8.6146 5.90027 7.98755 6.43443ZM7.98755 4.7623C8.77717 4.10041 9.2968 3.64464 9.54646 3.39498C9.79612 3.14532 9.92095 2.9276 9.92095 2.7418C9.92095 2.61407 9.8745 2.50085 9.78161 2.40215C9.68871 2.30345 9.57991 2.2541 9.45519 2.2541C9.35928 2.2541 9.27068 2.27732 9.18939 2.32377C9.10811 2.37022 9.03844 2.42828 8.98038 2.49795L7.98755 3.42111L7.01214 2.49795C6.94247 2.42828 6.86577 2.37022 6.78205 2.32377C6.69844 2.27732 6.61257 2.2541 6.52443 2.2541C6.3967 2.2541 6.28639 2.30345 6.19349 2.40215C6.1006 2.50085 6.05415 2.61407 6.05415 2.7418C6.05415 2.93921 6.18478 3.16564 6.44605 3.42111C6.70732 3.67657 7.22116 4.12363 7.98755 4.7623Z" fill="#4C4F56"/>
<path fill-rule="evenodd" clip-rule="evenodd" d="M8.96703 15.1889C9.3728 15.3196 9.80556 15.3902 10.2548 15.3902C12.5717 15.3902 14.4499 13.512 14.4499 11.1951C14.4499 8.87822 12.5717 7 10.2548 7C9.66802 7 9.10936 7.12048 8.60222 7.33805C8.99495 7.61447 9.34584 7.94633 9.6435 8.32226C9.84069 8.2805 10.0452 8.25854 10.2548 8.25854C11.8766 8.25854 13.1914 9.57329 13.1914 11.1951C13.1914 12.817 11.8766 14.1317 10.2548 14.1317C10.1394 14.1317 10.0255 14.125 9.91347 14.1121C9.6511 14.5152 9.33182 14.878 8.96703 15.1889ZM8.74 8.67889C8.44372 8.35357 8.09515 8.07671 7.70758 7.86159C7.43539 8.06989 7.18945 8.31078 6.9756 8.57842C7.36769 8.74935 7.71731 8.99948 8.00427 9.30859C8.21257 9.06037 8.46117 8.84711 8.74 8.67889ZM8.18927 13.2825C8.41893 13.5098 8.68591 13.6994 8.98018 13.8414C8.71438 14.1938 8.39235 14.5013 8.02742 14.7507C7.73658 14.5682 7.46973 14.3509 7.23268 14.1047C7.60552 13.8989 7.93116 13.618 8.18927 13.2825ZM7.5083 10.1536C7.38547 10.4773 7.31823 10.8284 7.31823 11.1951C7.31823 11.6588 7.42568 12.0973 7.61703 12.4872C7.39644 12.8679 7.06305 13.1751 6.66257 13.3631C6.27992 12.7304 6.05969 11.9885 6.05969 11.1951C6.05969 10.5409 6.20944 9.92168 6.47653 9.36983C6.89562 9.52048 7.25471 9.7969 7.5083 10.1536Z" fill="#4C4F56"/>
<path fill-rule="evenodd" clip-rule="evenodd" d="M5.74517 8.46838C4.12334 8.46838 2.80859 9.78313 2.80859 11.405C2.80859 13.0268 4.12334 14.3415 5.74517 14.3415C7.367 14.3415 8.68176 13.0268 8.68176 11.405C8.68176 9.78313 7.367 8.46838 5.74517 8.46838ZM1.55005 11.405C1.55005 9.08806 3.42827 7.20984 5.74517 7.20984C8.06208 7.20984 9.9403 9.08806 9.9403 11.405C9.9403 13.7219 8.06208 15.6001 5.74517 15.6001C3.42827 15.6001 1.55005 13.7219 1.55005 11.405Z" fill="#4C4F56"/>
</svg>
