<svg width="16" height="16" viewBox="0 0 16 16" fill="none" xmlns="http://www.w3.org/2000/svg">
<path d="M3.20002 13.6V7.98328L2.13336 8.79995L1.40002 7.83328L3.20002 6.46662V4.39995H4.40002V5.54995L8.00002 2.79995L14.6 7.83328L13.8667 8.79995L12.8 7.98328V13.6H3.20002ZM4.40002 12.4H7.40002V9.99545H8.60002V12.4H11.6V7.06112L8.00002 4.31662L4.40002 7.04995V12.4ZM3.20002 3.59995C3.20002 3.06662 3.36669 2.63328 3.70002 2.29995C4.03336 1.96662 4.46669 1.79995 5.00002 1.79995C5.18891 1.79995 5.33614 1.74717 5.44169 1.64162C5.54725 1.53606 5.60002 1.38884 5.60002 1.19995H6.80002C6.80002 1.73328 6.63336 2.16662 6.30002 2.49995C5.96669 2.83328 5.53336 2.99995 5.00002 2.99995C4.81114 2.99995 4.66391 3.05273 4.55836 3.15828C4.4528 3.26384 4.40002 3.41106 4.40002 3.59995H3.20002Z" fill="#088D8D"/>
</svg>
