<svg width="16" height="16" viewBox="0 0 16 16" fill="none" xmlns="http://www.w3.org/2000/svg">
<path d="M8.51672 10.8167L13.95 5.40001L13 4.45001L7.58338 9.88335L8.51672 10.8167ZM3.98338 12.8C2.97227 12.7667 2.18894 12.5445 1.63338 12.1333C1.07783 11.7222 0.800049 11.1611 0.800049 10.45C0.800049 9.75001 1.07783 9.1889 1.63338 8.76668C2.18894 8.34446 2.96116 8.10001 3.95005 8.03335C4.33894 8.01112 4.64449 7.94168 4.86672 7.82501C5.08894 7.70835 5.20005 7.56112 5.20005 7.38335C5.20005 7.08335 5.05005 6.86112 4.75005 6.71668C4.45005 6.57223 3.91672 6.46668 3.15005 6.40001L3.25005 5.20001C4.31672 5.26668 5.10838 5.48057 5.62505 5.84168C6.14172 6.20279 6.40005 6.71668 6.40005 7.38335C6.40005 7.91668 6.19449 8.34446 5.78338 8.66668C5.37227 8.9889 4.78894 9.17779 4.03338 9.23335C3.3556 9.2889 2.84727 9.41668 2.50838 9.61668C2.16949 9.81668 2.00005 10.0945 2.00005 10.45C2.00005 10.8167 2.16116 11.0917 2.48338 11.275C2.8056 11.4583 3.32227 11.5667 4.03338 11.6L3.98338 12.8ZM8.76672 12.2667L6.13338 9.61668L12.25 3.51668C12.4612 3.30557 12.7139 3.20001 13.0084 3.20001C13.3028 3.20001 13.5556 3.30557 13.7667 3.51668L14.8834 4.63335C15.0945 4.84446 15.2 5.09723 15.2 5.39168C15.2 5.68612 15.0945 5.9389 14.8834 6.15001L8.76672 12.2667ZM6.21672 12.8C6.02783 12.8445 5.86672 12.8 5.73338 12.6667C5.60005 12.5333 5.5556 12.3722 5.60005 12.1833L6.13338 9.61668L8.76672 12.2667L6.21672 12.8Z" fill="#088D8D"/>
</svg>
