<svg width="16" height="16" viewBox="0 0 16 16" fill="none" xmlns="http://www.w3.org/2000/svg">
<path d="M3.125 14.5V7.61765H2V4.17647H4.875C4.82292 4.05964 4.78385 3.93782 4.75781 3.811C4.73177 3.6843 4.71875 3.55122 4.71875 3.41176C4.71875 2.88072 4.90104 2.42933 5.26562 2.0576C5.63021 1.68587 6.07292 1.5 6.59375 1.5C6.8676 1.5 7.12354 1.55842 7.36156 1.67525C7.59969 1.79208 7.8125 1.95139 8 2.15319C8.17708 1.95139 8.38802 1.79208 8.63281 1.67525C8.8776 1.55842 9.13542 1.5 9.40625 1.5C9.92708 1.5 10.3698 1.68587 10.7344 2.0576C11.099 2.42933 11.2812 2.88072 11.2812 3.41176C11.2812 3.53922 11.263 3.66667 11.2266 3.79412C11.1901 3.92157 11.1562 4.04902 11.125 4.17647H14V7.61765H12.875V14.5H3.125ZM9.40625 2.64706C9.19375 2.64706 9.01562 2.72034 8.87187 2.86691C8.72812 3.01348 8.65625 3.1951 8.65625 3.41176C8.65625 3.62843 8.72812 3.81005 8.87187 3.95662C9.01562 4.10319 9.19375 4.17647 9.40625 4.17647C9.61875 4.17647 9.79688 4.10319 9.94063 3.95662C10.0844 3.81005 10.1562 3.62843 10.1562 3.41176C10.1562 3.1951 10.0844 3.01348 9.94063 2.86691C9.79688 2.72034 9.61875 2.64706 9.40625 2.64706ZM5.84375 3.41176C5.84375 3.62843 5.91562 3.81005 6.05937 3.95662C6.20312 4.10319 6.38125 4.17647 6.59375 4.17647C6.80625 4.17647 6.98438 4.10319 7.12813 3.95662C7.27188 3.81005 7.34375 3.62843 7.34375 3.41176C7.34375 3.1951 7.27188 3.01348 7.12813 2.86691C6.98438 2.72034 6.80625 2.64706 6.59375 2.64706C6.38125 2.64706 6.20312 2.72034 6.05937 2.86691C5.91562 3.01348 5.84375 3.1951 5.84375 3.41176ZM3.125 5.32353V6.47059H7.4375V5.32353H3.125ZM7.4375 13.3529V7.61765H4.25V13.3529H7.4375ZM8.5625 13.3529H11.75V7.61765H8.5625V13.3529ZM12.875 6.47059V5.32353H8.5625V6.47059H12.875Z" fill="#4C4F56"/>
</svg>
